<svg xmlns="http://www.w3.org/2000/svg" xmlns:svg="http://www.w3.org/2000/svg" xmlns:xlink="http://www.w3.org/1999/xlink" id="svg1770" width="58" height="48" version="1.1"><defs id="defs3"><linearGradient id="linearGradient2103"><stop style="stop-color:#fff;stop-opacity:1" id="stop2105" offset="0"/><stop style="stop-color:#e6e6e6;stop-opacity:1" id="stop2107" offset="1"/></linearGradient><linearGradient id="linearGradient2064"><stop style="stop-color:#b2b2b2;stop-opacity:1" id="stop2066" offset="0"/><stop style="stop-color:#dcdcde;stop-opacity:1" id="stop2068" offset="1"/></linearGradient><linearGradient id="linearGradient2052"><stop style="stop-color:#aaa;stop-opacity:1" id="stop2054" offset="0"/><stop style="stop-color:#c8c8ca;stop-opacity:1" id="stop2056" offset="1"/></linearGradient><linearGradient id="linearGradient1784"><stop id="stop1785" offset="0" style="stop-color:#fff;stop-opacity:1"/><stop id="stop1786" offset="1" style="stop-color:#dcdcde;stop-opacity:1"/></linearGradient><linearGradient id="linearGradient1789" x1="250.054" x2="511.689" y1="259.819" y2="549.613" gradientTransform="matrix(1.593044,0,0,1.241206,-129.6924,-73.34169)" gradientUnits="userSpaceOnUse" xlink:href="#linearGradient1784"/><linearGradient id="linearGradient1794" x1="205.673" x2="69.097" y1="1468.668" y2="1222.128" gradientTransform="matrix(2.470094,0,0,0.404843,-5.695438,24.53693)" gradientUnits="userSpaceOnUse" xlink:href="#linearGradient2052"/><linearGradient id="linearGradient1804" x1="1390.407" x2="1180.534" y1="284.347" y2="65.462" gradientTransform="matrix(0.493865,0,0,2.024845,-5.695438,24.53693)" gradientUnits="userSpaceOnUse" xlink:href="#linearGradient2064"/><linearGradient id="linearGradient2083" x1="250.054" x2="511.689" y1="259.819" y2="549.613" gradientTransform="matrix(1.593044,0,0,1.241206,-129.6924,-73.34169)" gradientUnits="userSpaceOnUse" xlink:href="#linearGradient1784"/><linearGradient id="linearGradient2085" x1="205.673" x2="69.097" y1="1468.668" y2="1222.128" gradientTransform="matrix(2.470094,0,0,0.404843,-5.695438,24.53693)" gradientUnits="userSpaceOnUse" xlink:href="#linearGradient2052"/><linearGradient id="linearGradient2087" x1="1390.407" x2="1180.534" y1="284.347" y2="65.462" gradientTransform="matrix(0.493865,0,0,2.024845,-5.695438,24.53693)" gradientUnits="userSpaceOnUse" xlink:href="#linearGradient2064"/><linearGradient id="linearGradient2094" x1="1390.407" x2="1180.534" y1="284.347" y2="65.462" gradientTransform="matrix(0.02351632,0,0,0.119682,11.31112,7.804527)" gradientUnits="userSpaceOnUse" xlink:href="#linearGradient2064"/><linearGradient id="linearGradient2098" x1="205.673" x2="69.097" y1="1468.668" y2="1222.128" gradientTransform="matrix(0.117618,0,0,0.02392903,2.29468,7.804527)" gradientUnits="userSpaceOnUse" xlink:href="#linearGradient2052"/><linearGradient id="linearGradient2101" x1="34.792" x2="13.166" y1="42.567" y2="15.033" gradientTransform="matrix(1.135639,0,0,1.098332,-5.414986,-5.868595)" gradientUnits="userSpaceOnUse" xlink:href="#linearGradient2103"/><linearGradient id="linearGradient2416" x1="34.792" x2="13.166" y1="42.567" y2="15.033" gradientTransform="matrix(1.135639,0,0,1.098332,-5.414986,-5.868595)" gradientUnits="userSpaceOnUse" xlink:href="#linearGradient2103"/><linearGradient id="linearGradient2418" x1="205.673" x2="69.097" y1="1468.668" y2="1222.128" gradientTransform="matrix(0.117618,0,0,0.02392903,2.29468,7.804527)" gradientUnits="userSpaceOnUse" xlink:href="#linearGradient2052"/><linearGradient id="linearGradient2420" x1="1390.407" x2="1180.534" y1="284.347" y2="65.462" gradientTransform="matrix(0.02351632,0,0,0.119682,11.31112,7.804527)" gradientUnits="userSpaceOnUse" xlink:href="#linearGradient2064"/><linearGradient id="linearGradient2721" x1="1390.407" x2="1180.534" y1="284.347" y2="65.462" gradientTransform="matrix(0.02351632,0,0,0.119682,11.31112,9.7235324)" gradientUnits="userSpaceOnUse" xlink:href="#linearGradient2064"/><linearGradient id="linearGradient2725" x1="205.673" x2="69.097" y1="1468.668" y2="1222.128" gradientTransform="matrix(0.117618,0,0,0.02392903,2.29468,9.7235324)" gradientUnits="userSpaceOnUse" xlink:href="#linearGradient2052"/><linearGradient id="linearGradient2728" x1="34.792" x2="13.166" y1="42.567" y2="15.033" gradientTransform="matrix(1.3965841,0,0,1.1183093,-7.5816242,-6.4401439)" gradientUnits="userSpaceOnUse" xlink:href="#linearGradient2103"/><linearGradient id="linearGradient28093"><stop id="stop28095" offset="0" style="stop-color:#f9f9f9;stop-opacity:1"/><stop id="stop28097" offset="1" style="stop-color:#f2f2f2;stop-opacity:1"/></linearGradient><radialGradient id="radialGradient28255" cx="-370.148" cy="-1281.121" r="247.266" fx="-370.148" fy="-1281.121" gradientTransform="matrix(-0.11809721,0.87245708,-1.6536295,-0.3000831,-3663.8366,-1723.8817)" gradientUnits="userSpaceOnUse" xlink:href="#linearGradient28093"/></defs><metadata id="metadata4"/><g id="layer1"><rect id="rect1788" width="49.974" height="39.583" x="4.068" y="4.263" rx="4.412" ry="4.588" style="fill:url(#linearGradient2728);fill-opacity:1;stroke:#b2b2b2;stroke-width:1;stroke-linecap:round;stroke-linejoin:miter;stroke-miterlimit:4;stroke-opacity:1;stroke-dasharray:none;stroke-dashoffset:0"/><path style="fill:#fff;fill-opacity:1;stroke:none" id="path3032" d="m 8.25,4.8125 c -2.0310478,0 -3.65625,1.7885986 -3.65625,4 l 0,1.28125 C 4.59375,8.0970873 6.2189522,6.5 8.25,6.5 l 41.59375,0 c 2.031048,0 3.6875,1.5970873 3.6875,3.59375 l 0,-1.28125 c 0,-2.2114014 -1.656452,-4 -3.6875,-4 l -41.59375,0 z"/><path style="fill:#b2b2b2;fill-opacity:1;stroke:none" id="rect3021" d="m 4.59375,38.246307 0,1.65625 c 0,2.211401 1.6252022,4 3.65625,4 l 41.59375,0 c 2.031048,0 3.6875,-1.788599 3.6875,-4 l 0,-1.65625 c 0,1.996663 -1.656452,3.59375 -3.6875,3.59375 l -41.59375,0 c -2.0310478,0 -3.65625,-1.597087 -3.65625,-3.59375 z"/><path style="fill:#4d4d4d;fill-opacity:1;stroke:none" id="rect2874" d="m 22.3125,14.093751 c -1.2307,-0.02664 -2.414537,0.117188 -3.46875,0.4375 l -0.5625,8.187499 c 4.321265,-1.098218 7.048,-0.2069 10.25,1.09375 L 28.9375,15.625 c -2.328612,-0.964735 -4.573834,-1.486858 -6.625,-1.531249 z M 30.03125,16 l -0.4375,8.218751 c 2.687266,1.187957 6.549107,1.62354 10.15625,0.125 L 40.34375,16.15625 C 36.972125,17.353808 34.256454,17.050599 30.03125,16 z M 21.75,23.5 c -1.256142,-0.01815 -2.445786,0.117189 -3.5,0.4375 l -0.59375,8.156251 c 4.321264,-0.531776 7.235499,-0.502867 10.4375,1.09375 l 0.375,-8.21875 C 26.140138,24.004015 23.843569,23.530256 21.75,23.5 z m 7.8125,1.875001 -0.40625,8.21875 c 2.692504,1.176038 6.616401,1.200725 10.0625,-0.1875 l 0.46875,-7.875 c -3.380823,1.227024 -6.34127,1.321705 -10.125,-0.15625 z"/></g></svg>