<svg xmlns="http://www.w3.org/2000/svg" xmlns:svg="http://www.w3.org/2000/svg" xmlns:xlink="http://www.w3.org/1999/xlink" id="svg1770" width="58" height="48" version="1.1"><defs id="defs3"><linearGradient id="linearGradient2103"><stop style="stop-color:#fff;stop-opacity:1" id="stop2105" offset="0"/><stop style="stop-color:#e6e6e6;stop-opacity:1" id="stop2107" offset="1"/></linearGradient><linearGradient id="linearGradient2064"><stop style="stop-color:#b2b2b2;stop-opacity:1" id="stop2066" offset="0"/><stop style="stop-color:#dcdcde;stop-opacity:1" id="stop2068" offset="1"/></linearGradient><linearGradient id="linearGradient2052"><stop style="stop-color:#aaa;stop-opacity:1" id="stop2054" offset="0"/><stop style="stop-color:#c8c8ca;stop-opacity:1" id="stop2056" offset="1"/></linearGradient><linearGradient id="linearGradient1784"><stop id="stop1785" offset="0" style="stop-color:#fff;stop-opacity:1"/><stop id="stop1786" offset="1" style="stop-color:#dcdcde;stop-opacity:1"/></linearGradient><linearGradient id="linearGradient1789" x1="250.054" x2="511.689" y1="259.819" y2="549.613" gradientTransform="matrix(1.593044,0,0,1.241206,-129.6924,-73.34169)" gradientUnits="userSpaceOnUse" xlink:href="#linearGradient1784"/><linearGradient id="linearGradient1794" x1="205.673" x2="69.097" y1="1468.668" y2="1222.128" gradientTransform="matrix(2.470094,0,0,0.404843,-5.695438,24.53693)" gradientUnits="userSpaceOnUse" xlink:href="#linearGradient2052"/><linearGradient id="linearGradient1804" x1="1390.407" x2="1180.534" y1="284.347" y2="65.462" gradientTransform="matrix(0.493865,0,0,2.024845,-5.695438,24.53693)" gradientUnits="userSpaceOnUse" xlink:href="#linearGradient2064"/><linearGradient id="linearGradient2083" x1="250.054" x2="511.689" y1="259.819" y2="549.613" gradientTransform="matrix(1.593044,0,0,1.241206,-129.6924,-73.34169)" gradientUnits="userSpaceOnUse" xlink:href="#linearGradient1784"/><linearGradient id="linearGradient2085" x1="205.673" x2="69.097" y1="1468.668" y2="1222.128" gradientTransform="matrix(2.470094,0,0,0.404843,-5.695438,24.53693)" gradientUnits="userSpaceOnUse" xlink:href="#linearGradient2052"/><linearGradient id="linearGradient2087" x1="1390.407" x2="1180.534" y1="284.347" y2="65.462" gradientTransform="matrix(0.493865,0,0,2.024845,-5.695438,24.53693)" gradientUnits="userSpaceOnUse" xlink:href="#linearGradient2064"/><linearGradient id="linearGradient2094" x1="1390.407" x2="1180.534" y1="284.347" y2="65.462" gradientTransform="matrix(0.02351632,0,0,0.119682,11.31112,7.804527)" gradientUnits="userSpaceOnUse" xlink:href="#linearGradient2064"/><linearGradient id="linearGradient2098" x1="205.673" x2="69.097" y1="1468.668" y2="1222.128" gradientTransform="matrix(0.117618,0,0,0.02392903,2.29468,7.804527)" gradientUnits="userSpaceOnUse" xlink:href="#linearGradient2052"/><linearGradient id="linearGradient2101" x1="34.792" x2="13.166" y1="42.567" y2="15.033" gradientTransform="matrix(1.135639,0,0,1.098332,-5.414986,-5.868595)" gradientUnits="userSpaceOnUse" xlink:href="#linearGradient2103"/><linearGradient id="linearGradient2416" x1="34.792" x2="13.166" y1="42.567" y2="15.033" gradientTransform="matrix(1.135639,0,0,1.098332,-5.414986,-5.868595)" gradientUnits="userSpaceOnUse" xlink:href="#linearGradient2103"/><linearGradient id="linearGradient2418" x1="205.673" x2="69.097" y1="1468.668" y2="1222.128" gradientTransform="matrix(0.117618,0,0,0.02392903,2.29468,7.804527)" gradientUnits="userSpaceOnUse" xlink:href="#linearGradient2052"/><linearGradient id="linearGradient2420" x1="1390.407" x2="1180.534" y1="284.347" y2="65.462" gradientTransform="matrix(0.02351632,0,0,0.119682,11.31112,7.804527)" gradientUnits="userSpaceOnUse" xlink:href="#linearGradient2064"/><linearGradient id="linearGradient2721" x1="1390.407" x2="1180.534" y1="284.347" y2="65.462" gradientTransform="matrix(0.02351632,0,0,0.119682,11.31112,9.7235324)" gradientUnits="userSpaceOnUse" xlink:href="#linearGradient2064"/><linearGradient id="linearGradient2725" x1="205.673" x2="69.097" y1="1468.668" y2="1222.128" gradientTransform="matrix(0.117618,0,0,0.02392903,2.29468,9.7235324)" gradientUnits="userSpaceOnUse" xlink:href="#linearGradient2052"/><linearGradient id="linearGradient2728" x1="34.792" x2="13.166" y1="42.567" y2="15.033" gradientTransform="matrix(1.3965841,0,0,1.1183093,-7.5816242,-6.4401439)" gradientUnits="userSpaceOnUse" xlink:href="#linearGradient2103"/></defs><metadata id="metadata4"/><g id="layer1"><rect id="rect1788" width="49.974" height="39.583" x="4.068" y="4.263" rx="4.412" ry="4.588" style="fill:url(#linearGradient2728);fill-opacity:1;stroke:#7d7d7d;stroke-width:1;stroke-linecap:round;stroke-linejoin:miter;stroke-miterlimit:4;stroke-opacity:1;stroke-dasharray:none;stroke-dashoffset:0"/><g style="font-size:21.10067368px;font-style:normal;font-variant:normal;font-weight:700;font-stretch:normal;text-align:start;line-height:125%;writing-mode:lr-tb;text-anchor:start;fill:#000;fill-opacity:1;stroke:none;font-family:DejaVu Sans;-inkscape-font-specification:DejaVu Sans" id="text14572" transform="scale(1.0161396,0.98411676)"><path style="fill:#000;font-family:DejaVu Sans;-inkscape-font-specification:DejaVu Sans Bold" id="path4149" d="m 23.028945,30.05455 -6.202444,0 -0.978791,2.802433 -3.987286,0 5.697594,-15.382473 4.729107,0 5.697594,15.382473 -3.987286,0 -0.968488,-2.802433 z m -5.21335,-2.853949 4.213953,0 -2.101825,-6.120019 -2.112128,6.120019 z"/><path style="fill:#000;font-family:DejaVu Sans;-inkscape-font-specification:DejaVu Sans Bold" id="path4151" d="m 29.849574,16.825417 3.688496,0 0,16.031566 -3.688496,0 0,-16.031566 z"/><path style="fill:#000;font-family:DejaVu Sans;-inkscape-font-specification:DejaVu Sans Bold" id="path4153" d="m 41.131429,18.041178 0,3.276374 3.80183,0 0,2.637584 -3.80183,0 0,4.893956 q 0,0.803638 0.319394,1.092124 0.319395,0.278183 1.267277,0.278183 l 1.895764,0 0,2.637584 -3.163041,0 q -2.184249,0 -3.101222,-0.906669 -0.906669,-0.916973 -0.906669,-3.101222 l 0,-4.893956 -1.833945,0 0,-2.637584 1.833945,0 0,-3.276374 3.688497,0 z"/></g><path style="fill:#fff;fill-opacity:1;stroke:none" id="path3618" d="m 5.0481053,40.132178 c 0,-10.223586 0.016264,-30.1890134 0,-31.4662577 C 5.0284682,7.1238157 6.6948399,5.4537654 8.2300858,5.307163 9.2543395,5.2093558 39.605559,5.3660886 50.62464,5.3955514 39.782336,5.8669559 11.098977,7.309095 9.9996929,7.3918717 8.4024922,7.5121417 7.2092865,8.688987 7.070314,10.851587 7.0105024,11.782334 5.5489726,30.026444 5.0481053,40.132178 z"/><path style="fill:#adadad;fill-opacity:1;stroke:none" id="path3618-6" d="m 53.233505,8.112138 c 0,10.223587 -0.01626,30.277403 0,31.554642 0.01964,1.542105 -1.646735,3.212155 -3.18198,3.358757 -1.024254,0.09781 -31.095353,-0.05893 -42.1144352,-0.08839 10.8423052,-0.471403 40.8868282,-0.624017 41.9818522,-0.7513 1.0347,-0.12027 2.310013,-1.426557 2.386485,-2.651651 0.05811,-0.930855 0.427211,-21.316323 0.928078,-31.422058 z"/></g></svg>