<svg xmlns="http://www.w3.org/2000/svg" xmlns:svg="http://www.w3.org/2000/svg" xmlns:xlink="http://www.w3.org/1999/xlink" id="svg1770" width="58" height="48" version="1.1"><defs id="defs3"><linearGradient id="linearGradient2103"><stop style="stop-color:#fff;stop-opacity:1" id="stop2105" offset="0"/><stop style="stop-color:#e6e6e6;stop-opacity:1" id="stop2107" offset="1"/></linearGradient><linearGradient id="linearGradient2064"><stop style="stop-color:#b2b2b2;stop-opacity:1" id="stop2066" offset="0"/><stop style="stop-color:#dcdcde;stop-opacity:1" id="stop2068" offset="1"/></linearGradient><linearGradient id="linearGradient2052"><stop style="stop-color:#aaa;stop-opacity:1" id="stop2054" offset="0"/><stop style="stop-color:#c8c8ca;stop-opacity:1" id="stop2056" offset="1"/></linearGradient><linearGradient id="linearGradient1784"><stop id="stop1785" offset="0" style="stop-color:#fff;stop-opacity:1"/><stop id="stop1786" offset="1" style="stop-color:#dcdcde;stop-opacity:1"/></linearGradient><linearGradient id="linearGradient1789" x1="250.054" x2="511.689" y1="259.819" y2="549.613" gradientTransform="matrix(1.593044,0,0,1.241206,-129.6924,-73.34169)" gradientUnits="userSpaceOnUse" xlink:href="#linearGradient1784"/><linearGradient id="linearGradient1794" x1="205.673" x2="69.097" y1="1468.668" y2="1222.128" gradientTransform="matrix(2.470094,0,0,0.404843,-5.695438,24.53693)" gradientUnits="userSpaceOnUse" xlink:href="#linearGradient2052"/><linearGradient id="linearGradient1804" x1="1390.407" x2="1180.534" y1="284.347" y2="65.462" gradientTransform="matrix(0.493865,0,0,2.024845,-5.695438,24.53693)" gradientUnits="userSpaceOnUse" xlink:href="#linearGradient2064"/><linearGradient id="linearGradient2083" x1="250.054" x2="511.689" y1="259.819" y2="549.613" gradientTransform="matrix(1.593044,0,0,1.241206,-129.6924,-73.34169)" gradientUnits="userSpaceOnUse" xlink:href="#linearGradient1784"/><linearGradient id="linearGradient2085" x1="205.673" x2="69.097" y1="1468.668" y2="1222.128" gradientTransform="matrix(2.470094,0,0,0.404843,-5.695438,24.53693)" gradientUnits="userSpaceOnUse" xlink:href="#linearGradient2052"/><linearGradient id="linearGradient2087" x1="1390.407" x2="1180.534" y1="284.347" y2="65.462" gradientTransform="matrix(0.493865,0,0,2.024845,-5.695438,24.53693)" gradientUnits="userSpaceOnUse" xlink:href="#linearGradient2064"/><linearGradient id="linearGradient2094" x1="1390.407" x2="1180.534" y1="284.347" y2="65.462" gradientTransform="matrix(0.02351632,0,0,0.119682,11.31112,7.804527)" gradientUnits="userSpaceOnUse" xlink:href="#linearGradient2064"/><linearGradient id="linearGradient2098" x1="205.673" x2="69.097" y1="1468.668" y2="1222.128" gradientTransform="matrix(0.117618,0,0,0.02392903,2.29468,7.804527)" gradientUnits="userSpaceOnUse" xlink:href="#linearGradient2052"/><linearGradient id="linearGradient2101" x1="34.792" x2="13.166" y1="42.567" y2="15.033" gradientTransform="matrix(1.135639,0,0,1.098332,-5.414986,-5.868595)" gradientUnits="userSpaceOnUse" xlink:href="#linearGradient2103"/><linearGradient id="linearGradient2416" x1="34.792" x2="13.166" y1="42.567" y2="15.033" gradientTransform="matrix(1.135639,0,0,1.098332,-5.414986,-5.868595)" gradientUnits="userSpaceOnUse" xlink:href="#linearGradient2103"/><linearGradient id="linearGradient2418" x1="205.673" x2="69.097" y1="1468.668" y2="1222.128" gradientTransform="matrix(0.117618,0,0,0.02392903,2.29468,7.804527)" gradientUnits="userSpaceOnUse" xlink:href="#linearGradient2052"/><linearGradient id="linearGradient2420" x1="1390.407" x2="1180.534" y1="284.347" y2="65.462" gradientTransform="matrix(0.02351632,0,0,0.119682,11.31112,7.804527)" gradientUnits="userSpaceOnUse" xlink:href="#linearGradient2064"/><linearGradient id="linearGradient2721" x1="1390.407" x2="1180.534" y1="284.347" y2="65.462" gradientTransform="matrix(0.02351632,0,0,0.119682,11.31112,9.7235324)" gradientUnits="userSpaceOnUse" xlink:href="#linearGradient2064"/><linearGradient id="linearGradient2725" x1="205.673" x2="69.097" y1="1468.668" y2="1222.128" gradientTransform="matrix(0.117618,0,0,0.02392903,2.29468,9.7235324)" gradientUnits="userSpaceOnUse" xlink:href="#linearGradient2052"/><linearGradient id="linearGradient2728" x1="34.792" x2="13.166" y1="42.567" y2="15.033" gradientTransform="matrix(1.3965841,0,0,1.1183093,-7.5816242,-6.4401439)" gradientUnits="userSpaceOnUse" xlink:href="#linearGradient2103"/></defs><metadata id="metadata4"/><g id="layer1"><rect id="rect1788" width="49.974" height="39.583" x="4.068" y="4.263" rx="4.412" ry="4.588" style="fill:url(#linearGradient2728);fill-opacity:1;stroke:#7d7d7d;stroke-width:1;stroke-linecap:round;stroke-linejoin:miter;stroke-miterlimit:4;stroke-opacity:1;stroke-dasharray:none;stroke-dashoffset:0"/><g style="font-size:18.37702179px;font-style:normal;font-variant:normal;font-weight:700;font-stretch:normal;text-align:start;line-height:125%;writing-mode:lr-tb;text-anchor:start;fill:#000;fill-opacity:1;stroke:none;font-family:DejaVu Sans;-inkscape-font-specification:DejaVu Sans" id="text14572" transform="scale(0.88497747,1.1299723)"><path style="font-stretch:semi-condensed;fill:#000;font-family:DejaVu Sans;-inkscape-font-specification:DejaVu Sans Bold Semi-Condensed" id="path4149" d="m 17.616315,26.175141 -4.86345,0 -0.771691,2.440698 -3.122658,0 4.468631,-13.396921 3.705913,0 4.468632,13.396921 -3.131631,0 -0.753746,-2.440698 z m -4.091758,-2.485564 3.302121,0 -1.642088,-5.330054 -1.660033,5.330054 z"/><path style="font-stretch:semi-condensed;fill:#000;font-family:DejaVu Sans;-inkscape-font-specification:DejaVu Sans Bold Semi-Condensed" id="path4151" d="m 22.982262,14.65361 2.889356,0 0,13.962229 -2.889356,0 0,-13.962229 z"/><path style="font-stretch:semi-condensed;fill:#000;font-family:DejaVu Sans;-inkscape-font-specification:DejaVu Sans Bold Semi-Condensed" id="path4153" d="m 31.847739,15.712442 0,2.853463 2.979088,0 0,2.297128 -2.979088,0 0,4.262249 q 0,0.699906 0.242275,0.951154 0.251249,0.242275 0.99602,0.242275 l 1.489544,0 0,2.297128 -2.476591,0 q -1.713872,0 -2.431725,-0.789638 -0.717852,-0.79861 -0.717852,-2.700919 l 0,-4.262249 -1.435705,0 0,-2.297128 1.435705,0 0,-2.853463 2.898329,0 z"/><path style="font-stretch:semi-condensed;fill:#000;font-family:DejaVu Sans;-inkscape-font-specification:DejaVu Sans Bold Semi-Condensed" id="path4155" d="m 47.586654,27.619819 q -1.16651,0.628121 -2.422752,0.942181 -1.247268,0.314061 -2.575295,0.314061 -3.01498,0 -4.773719,-1.866417 -1.758738,-1.875389 -1.758738,-5.078806 0,-3.239309 1.785658,-5.096752 1.794631,-1.857443 4.917289,-1.857443 1.202402,0 2.3061,0.251248 1.103699,0.251249 2.081772,0.744772 l 0,2.772705 q -1.013966,-0.637094 -2.009986,-0.951154 -0.99602,-0.314061 -2.001014,-0.314061 -1.857443,0 -2.862436,1.157537 -1.004994,1.148564 -1.004994,3.293148 0,2.126638 0.969101,3.284175 0.969101,1.157537 2.754759,1.157537 0.48455,0 0.897315,-0.06281 0.421738,-0.07178 0.744772,-0.215356 l 0,-2.602215 -1.893336,0 0,-2.315074 4.845504,0 0,6.442726 z"/><path style="font-stretch:semi-condensed;fill:#000;font-family:DejaVu Sans;-inkscape-font-specification:DejaVu Sans Bold Semi-Condensed" id="path4157" d="m 56.909761,21.302718 q -0.385845,-0.19741 -0.762718,-0.287141 -0.367899,-0.0987 -0.753745,-0.0987 -1.112671,0 -1.713873,0.798611 -0.601201,0.789637 -0.601201,2.270208 l 0,4.630148 -2.889356,0 0,-10.049934 2.889356,0 0,1.651061 q 0.556336,-0.987047 1.274188,-1.435705 0.726826,-0.457631 1.740792,-0.457631 0.143571,0 0.314061,0.01795 0.170489,0.009 0.493523,0.05384 l 0.009,2.907303 z"/></g><path style="fill:#fff;fill-opacity:1;stroke:none" id="path3618" d="m 5.0481053,40.132178 c 0,-10.223586 0.016264,-30.1890134 0,-31.4662577 C 5.0284682,7.1238157 6.6948399,5.4537654 8.2300858,5.307163 9.2543395,5.2093558 39.605559,5.3660886 50.62464,5.3955514 39.782336,5.8669559 11.098977,7.309095 9.9996929,7.3918717 8.4024922,7.5121417 7.2092865,8.688987 7.070314,10.851587 7.0105024,11.782334 5.5489726,30.026444 5.0481053,40.132178 z"/><path style="fill:#adadad;fill-opacity:1;stroke:none" id="path3618-6" d="m 53.233505,8.112138 c 0,10.223587 -0.01626,30.277403 0,31.554642 0.01964,1.542105 -1.646735,3.212155 -3.18198,3.358757 -1.024254,0.09781 -31.095353,-0.05893 -42.1144352,-0.08839 10.8423052,-0.471403 40.8868282,-0.624017 41.9818522,-0.7513 1.0347,-0.12027 2.310013,-1.426557 2.386485,-2.651651 0.05811,-0.930855 0.427211,-21.316323 0.928078,-31.422058 z"/></g></svg>