<svg xmlns="http://www.w3.org/2000/svg" xmlns:svg="http://www.w3.org/2000/svg" xmlns:xlink="http://www.w3.org/1999/xlink" id="svg1770" width="48" height="48" version="1.1"><defs id="defs3"><linearGradient id="linearGradient2961" x1="45.448" x2="45.448" y1="92.54" y2="7.017" gradientTransform="scale(1.0058652,0.994169)" gradientUnits="userSpaceOnUse" xlink:href="#ButtonShadow-2"/><filter id="filter3689" color-interpolation-filters="sRGB"><feGaussianBlur id="feGaussianBlur3691" stdDeviation="1.71"/></filter><linearGradient id="ButtonShadow-2" x1="45.448" x2="45.448" y1="92.54" y2="7.017" gradientTransform="scale(1.0058652,0.994169)" gradientUnits="userSpaceOnUse"><stop style="stop-color:#000;stop-opacity:1" id="stop3750-61" offset="0"/><stop style="stop-color:#000;stop-opacity:.58823532" id="stop3752-0" offset="1"/></linearGradient><radialGradient id="radialGradient644" cx="159.491" cy="168.12" r="30.638" fx="159.491" fy="168.12" gradientTransform="scale(0.6636838,1.5067416)" gradientUnits="userSpaceOnUse" spreadMethod="reflect" xlink:href="#linearGradient646"/><linearGradient id="linearGradient646"><stop style="stop-color:#b3b3eb;stop-opacity:0" id="stop647" offset="0"/><stop style="stop-color:#000;stop-opacity:1" id="stop648" offset="1"/></linearGradient><linearGradient id="linearGradient643" x1="193.629" x2="193.628" y1="161.647" y2="162.417" gradientTransform="scale(0.6636838,1.5067416)" gradientUnits="userSpaceOnUse" spreadMethod="reflect" xlink:href="#linearGradient640"/><linearGradient id="linearGradient640"><stop style="stop-color:#333;stop-opacity:1" id="stop641" offset="0"/><stop style="stop-color:#fff;stop-opacity:1" id="stop642" offset="1"/></linearGradient><radialGradient id="radialGradient656" cx="193.401" cy="181.62" r="68.141" fx="193.401" fy="181.62" gradientTransform="scale(0.67783439,1.4752866)" gradientUnits="userSpaceOnUse" spreadMethod="reflect" xlink:href="#linearGradient650"/><linearGradient id="linearGradient650"><stop style="stop-color:#fff;stop-opacity:1" id="stop651" offset="0"/><stop style="stop-color:#666;stop-opacity:1" id="stop652" offset="1"/></linearGradient><radialGradient id="radialGradient922" cx="85.528" cy="170.144" r="252.084" fx="85.528" fy="170.144" gradientTransform="matrix(0.15552064,0,0,0.18143897,-4.5597628,-20.653753)" gradientUnits="userSpaceOnUse" spreadMethod="reflect" xlink:href="#linearGradient650"/></defs><metadata id="metadata4"/><g id="layer1"><g id="layer2" transform="translate(-14.252266,59.038523)" style="display:none"><path id="rect3745" d="m 11,7.0000001 c -3.324,0 -6,2.676 -6,5.9999999 l 0,5 0,16 c 0,15.179622 5,20.148843 5,40 l 0,12 c 0,3.313708 2.686292,6 6,6 l 64,0 c 3.313708,0 6,-2.686292 6,-6 l 0,-12 c 0,-19.851157 5,-24.820378 5,-40 l 0,-16 0,-5 C 91,9.6760001 88.324,7.0000001 85,7.0000001 l -74,0 z" style="opacity:.9;fill:url(#linearGradient2961);fill-opacity:1;fill-rule:nonzero;stroke:none;display:inline;filter:url(#filter3689)"/></g><path style="font-size:12px;fill:url(#radialGradient922);fill-rule:evenodd;stroke:#000;stroke-width:.1;stroke-miterlimit:4;stroke-dasharray:none" id="path617" d="m 20.505084,47.251268 c -15.6105918,0 -17.9707368,-8.607578 -17.8092718,-11.334646 l 0,0 0,0 0,0 0,0 0,0 C 2.9361352,33.344436 3.1360452,22.997507 2.4464862,14.28496 2.6221862,4.7631449 14.334068,4.9907449 20.502472,4.9907449 c 6.168368,0 17.880248,-0.2276 18.055948,9.2942151 -0.68954,8.712547 -0.48964,19.059476 -0.24933,21.631107 l 0,0 0,0 0,0 0,0 0,0 c 0.1615,2.727066 -2.19866,11.334645 -17.809251,11.334645"/><path style="fill:url(#radialGradient656);fill-opacity:1;fill-rule:evenodd;stroke:none" id="path655" d="m 133.75,254.93353 a 15.9375,34.6875 0 1 1 -31.875,0 15.9375,34.6875 0 1 1 31.875,0 z" transform="matrix(0.20896473,0,0,0.1645892,-4.1340018,-28.904556)"/><path style="font-size:12px;fill:none;stroke:#000;stroke-width:.60000002;stroke-miterlimit:4;stroke-dasharray:none" id="path618" d="m 20.50031,5.0468499 0,15.6982101"/><path style="fill:url(#linearGradient643);fill-opacity:1;fill-rule:evenodd;stroke:none" id="path639" d="m 129.375,257.12103 a 11.5625,26.25 0 1 1 -23.125,0 11.5625,26.25 0 1 1 23.125,0 z" transform="matrix(0.21314407,0,0,0.13238698,-4.5597668,-21.067467)"/><path style="fill:url(#radialGradient644);fill-opacity:1;fill-rule:evenodd;stroke:none" id="path645" d="m 129.375,257.12103 a 11.5625,26.25 0 1 1 -23.125,0 11.5625,26.25 0 1 1 23.125,0 z" transform="matrix(0.21314407,0,0,0.13238698,-4.5597668,-21.067467)"/><path style="fill:none;stroke:#000;stroke-width:.60000002;stroke-linecap:round;stroke-linejoin:miter;stroke-miterlimit:4;stroke-opacity:1;stroke-dasharray:none" id="path619" d="m 20.454314,20.737185 c -17.5515628,0 -17.0859288,0.43648 -17.6104628,0.519221"/><path style="font-size:12px;fill:none;stroke:#000;stroke-width:.60000002;stroke-linecap:round;stroke-miterlimit:4;stroke-dasharray:none" id="path620" d="m 20.50031,20.736747 c 17.72707,0 17.66581,0.617889 17.66581,0.617889"/></g></svg>