<svg xmlns="http://www.w3.org/2000/svg" xmlns:svg="http://www.w3.org/2000/svg" xmlns:xlink="http://www.w3.org/1999/xlink" id="svg1770" width="72" height="48" version="1.1"><defs id="defs3"><linearGradient id="linearGradient2103"><stop style="stop-color:#fff;stop-opacity:1" id="stop2105" offset="0"/><stop style="stop-color:#e6e6e6;stop-opacity:1" id="stop2107" offset="1"/></linearGradient><linearGradient id="linearGradient2064"><stop style="stop-color:#b2b2b2;stop-opacity:1" id="stop2066" offset="0"/><stop style="stop-color:#dcdcde;stop-opacity:1" id="stop2068" offset="1"/></linearGradient><linearGradient id="linearGradient2052"><stop style="stop-color:#aaa;stop-opacity:1" id="stop2054" offset="0"/><stop style="stop-color:#c8c8ca;stop-opacity:1" id="stop2056" offset="1"/></linearGradient><linearGradient id="linearGradient1784"><stop id="stop1785" offset="0" style="stop-color:#fff;stop-opacity:1"/><stop id="stop1786" offset="1" style="stop-color:#dcdcde;stop-opacity:1"/></linearGradient><linearGradient id="linearGradient1789" x1="250.054" x2="511.689" y1="259.819" y2="549.613" gradientTransform="matrix(1.593044,0,0,1.241206,-129.6924,-73.34169)" gradientUnits="userSpaceOnUse" xlink:href="#linearGradient1784"/><linearGradient id="linearGradient1794" x1="205.673" x2="69.097" y1="1468.668" y2="1222.128" gradientTransform="matrix(2.470094,0,0,0.404843,-5.695438,24.53693)" gradientUnits="userSpaceOnUse" xlink:href="#linearGradient2052"/><linearGradient id="linearGradient1804" x1="1390.407" x2="1180.534" y1="284.347" y2="65.462" gradientTransform="matrix(0.493865,0,0,2.024845,-5.695438,24.53693)" gradientUnits="userSpaceOnUse" xlink:href="#linearGradient2064"/><linearGradient id="linearGradient2083" x1="250.054" x2="511.689" y1="259.819" y2="549.613" gradientTransform="matrix(1.593044,0,0,1.241206,-129.6924,-73.34169)" gradientUnits="userSpaceOnUse" xlink:href="#linearGradient1784"/><linearGradient id="linearGradient2085" x1="205.673" x2="69.097" y1="1468.668" y2="1222.128" gradientTransform="matrix(2.470094,0,0,0.404843,-5.695438,24.53693)" gradientUnits="userSpaceOnUse" xlink:href="#linearGradient2052"/><linearGradient id="linearGradient2087" x1="1390.407" x2="1180.534" y1="284.347" y2="65.462" gradientTransform="matrix(0.493865,0,0,2.024845,-5.695438,24.53693)" gradientUnits="userSpaceOnUse" xlink:href="#linearGradient2064"/><linearGradient id="linearGradient2094" x1="1390.407" x2="1180.534" y1="284.347" y2="65.462" gradientTransform="matrix(0.02351632,0,0,0.119682,11.31112,7.804527)" gradientUnits="userSpaceOnUse" xlink:href="#linearGradient2064"/><linearGradient id="linearGradient2098" x1="205.673" x2="69.097" y1="1468.668" y2="1222.128" gradientTransform="matrix(0.117618,0,0,0.02392903,2.29468,7.804527)" gradientUnits="userSpaceOnUse" xlink:href="#linearGradient2052"/><linearGradient id="linearGradient2101" x1="34.792" x2="13.166" y1="42.567" y2="15.033" gradientTransform="matrix(1.135639,0,0,1.098332,-5.414986,-5.868595)" gradientUnits="userSpaceOnUse" xlink:href="#linearGradient2103"/><linearGradient id="linearGradient2416" x1="34.792" x2="13.166" y1="42.567" y2="15.033" gradientTransform="matrix(1.135639,0,0,1.098332,-5.414986,-5.868595)" gradientUnits="userSpaceOnUse" xlink:href="#linearGradient2103"/><linearGradient id="linearGradient2418" x1="205.673" x2="69.097" y1="1468.668" y2="1222.128" gradientTransform="matrix(0.117618,0,0,0.02392903,2.29468,7.804527)" gradientUnits="userSpaceOnUse" xlink:href="#linearGradient2052"/><linearGradient id="linearGradient2420" x1="1390.407" x2="1180.534" y1="284.347" y2="65.462" gradientTransform="matrix(0.02351632,0,0,0.119682,11.31112,7.804527)" gradientUnits="userSpaceOnUse" xlink:href="#linearGradient2064"/><linearGradient id="linearGradient2721" x1="1390.407" x2="1180.534" y1="284.347" y2="65.462" gradientTransform="matrix(0.02351632,0,0,0.119682,11.31112,9.7235324)" gradientUnits="userSpaceOnUse" xlink:href="#linearGradient2064"/><linearGradient id="linearGradient2725" x1="205.673" x2="69.097" y1="1468.668" y2="1222.128" gradientTransform="matrix(0.117618,0,0,0.02392903,2.29468,9.7235324)" gradientUnits="userSpaceOnUse" xlink:href="#linearGradient2052"/><linearGradient id="linearGradient2728" x1="34.792" x2="13.166" y1="42.567" y2="15.033" gradientTransform="matrix(1.7880017,0,0,1.1183093,-10.846536,-6.4401439)" gradientUnits="userSpaceOnUse" xlink:href="#linearGradient2103"/></defs><metadata id="metadata4"/><g id="layer1"><rect id="rect1788" width="63.979" height="39.583" x="4.068" y="4.263" rx="4.412" ry="4.588" style="fill:url(#linearGradient2728);fill-opacity:1;stroke:#000;stroke-width:1;stroke-linecap:round;stroke-linejoin:miter;stroke-miterlimit:4;stroke-opacity:1;stroke-dasharray:none;stroke-dashoffset:0"/><path style="fill:#fff;fill-opacity:1;stroke:none" id="path3618" d="m 5.0481053,40.132178 c 0,-10.223586 0.016264,-30.1890134 0,-31.4662577 C 5.0284682,7.1238157 6.6948399,5.4537654 8.2300858,5.307163 9.2543395,5.2093558 53.331406,5.3660886 64.350487,5.3955514 53.508183,5.8669559 11.098977,7.309095 9.9996929,7.3918717 8.4024922,7.5121417 7.2092865,8.688987 7.070314,10.851587 7.0105024,11.782334 5.5489726,30.026444 5.0481053,40.132178 z"/><path style="fill:#adadad;fill-opacity:1;stroke:none" id="path3618-6" d="m 67.233505,8.112138 c 0,10.223587 -0.01626,30.277403 0,31.554642 0.01964,1.542105 -1.646735,3.212155 -3.18198,3.358757 -1.024254,0.09781 -45.10132,-0.05893 -56.1204015,-0.08839 10.8423045,-0.471403 54.8927945,-0.624017 55.9878185,-0.7513 1.0347,-0.12027 2.310013,-1.426557 2.386485,-2.651651 0.05811,-0.930855 0.427211,-21.316323 0.928078,-31.422058 z"/><g style="font-size:18.59216881px;font-style:normal;font-variant:normal;font-weight:700;font-stretch:normal;text-align:start;line-height:125%;writing-mode:lr-tb;text-anchor:start;fill:#000;fill-opacity:1;stroke:none;font-family:DejaVu Sans;-inkscape-font-specification:DejaVu Sans" id="text14572-4"><path style="font-size:27.5px;font-weight:400;font-stretch:semi-condensed;text-align:center;text-anchor:middle;fill:#000;font-family:DejaVu Sans;-inkscape-font-specification:DejaVu Sans Semi-Condensed" id="path4150" d="m 20.716187,14.916618 0,2.645264 q -1.383057,-0.738525 -2.618409,-1.101074 -1.235351,-0.362549 -2.376709,-0.362549 -2.000732,0 -3.088379,0.859375 -1.074218,0.859375 -1.074218,2.443848 0,1.329345 0.71167,2.01416 0.725097,0.671387 2.739257,1.087646 l 1.463623,0.335694 q 2.739258,0.577392 4.028321,2.041015 1.30249,1.450196 1.30249,3.894043 0,2.913819 -1.759033,4.417725 -1.745606,1.503906 -5.142822,1.503906 -1.289063,0 -2.739258,-0.322266 -1.436768,-0.322265 -2.9809573,-0.953369 l 0,-2.792968 q 1.4904783,0.926513 2.9138183,1.396484 1.42334,0.469971 2.806397,0.469971 2.081298,0 3.222656,-0.913086 1.141357,-0.913086 1.141357,-2.604981 0,-1.477051 -0.819092,-2.30957 -0.819091,-0.83252 -2.685546,-1.248779 L 14.284302,25.094841 Q 11.545044,24.490593 10.32312,23.20153 9.114624,21.912468 9.114624,19.616325 q 0,-2.658691 1.678467,-4.189453 1.691894,-1.530761 4.645996,-1.530761 1.275635,0 2.591553,0.255126 1.315918,0.255127 2.685547,0.765381 z"/><path style="font-size:27.5px;font-weight:400;font-stretch:semi-condensed;text-align:center;text-anchor:middle;fill:#000;font-family:DejaVu Sans;-inkscape-font-specification:DejaVu Sans Semi-Condensed" id="path4152" d="m 36.748901,25.229118 0,9.077149 -2.229004,0 0,-8.996582 q 0,-2.13501 -0.751953,-3.195801 -0.751953,-1.060791 -2.242431,-1.060791 -1.799317,0 -2.84668,1.275635 -1.033936,1.275634 -1.033936,3.477783 l 0,8.499756 -2.242431,0 0,-20.893555 2.242431,0 0,8.190918 q 0.792237,-1.356201 1.866456,-2.027588 1.087646,-0.671387 2.510986,-0.671387 2.322998,0 3.518066,1.611329 1.208496,1.5979 1.208496,4.713134 z"/><path style="font-size:27.5px;font-weight:400;font-stretch:semi-condensed;text-align:center;text-anchor:middle;fill:#000;font-family:DejaVu Sans;-inkscape-font-specification:DejaVu Sans Semi-Condensed" id="path4154" d="m 39.904584,19.267204 2.215576,0 0,15.039063 -2.215576,0 0,-15.039063 z m 0,-5.854492 2.215576,0 0,3.128662 -2.215576,0 0,-3.128662 z"/><path style="font-size:27.5px;font-weight:400;font-stretch:semi-condensed;text-align:center;text-anchor:middle;fill:#000;font-family:DejaVu Sans;-inkscape-font-specification:DejaVu Sans Semi-Condensed" id="path4156" d="m 53.574017,13.412712 0,2.054443 -2.121582,0 q -1.208496,0 -1.678467,0.53711 -0.456542,0.537109 -0.456542,1.933594 l 0,1.329345 3.665771,0 0,1.920166 -3.665771,0 0,13.118897 -2.229004,0 0,-13.118897 -2.13501,0 0,-1.920166 2.13501,0 0,-1.047363 q 0,-2.510986 1.047363,-3.652344 1.047363,-1.154785 3.330078,-1.154785 l 2.108154,0 z" xml:space="default"/><path style="font-size:27.5px;font-weight:400;font-stretch:semi-condensed;text-align:center;text-anchor:middle;fill:#000;font-family:DejaVu Sans;-inkscape-font-specification:DejaVu Sans Semi-Condensed" id="path4158" d="m 58.421265,14.997185 0,4.270019 4.578857,0 0,1.920166 -4.578857,0 0,8.164063 q 0,1.839599 0.443115,2.363281 0.456543,0.523682 1.839599,0.523682 l 2.296143,0 0,2.067871 -2.296143,0 q -2.564697,0 -3.544921,-1.060791 -0.980225,-1.074219 -0.980225,-3.894043 l 0,-8.164063 -1.624756,0 0,-1.920166 1.624756,0 0,-4.270019 2.242432,0 z"/></g></g></svg>