<svg xmlns="http://www.w3.org/2000/svg" xmlns:svg="http://www.w3.org/2000/svg" xmlns:xlink="http://www.w3.org/1999/xlink" id="svg1770" width="19.44" height="44.131" version="1.1"><defs id="defs3"><linearGradient id="linearGradient2103"><stop style="stop-color:#2c2c2c;stop-opacity:1" id="stop2105" offset="0"/><stop style="stop-color:#1e1e1e;stop-opacity:1" id="stop2107" offset="1"/></linearGradient><linearGradient id="linearGradient2064"><stop style="stop-color:#b2b2b2;stop-opacity:1" id="stop2066" offset="0"/><stop style="stop-color:#dcdcde;stop-opacity:1" id="stop2068" offset="1"/></linearGradient><linearGradient id="linearGradient2052"><stop style="stop-color:#aaa;stop-opacity:1" id="stop2054" offset="0"/><stop style="stop-color:#c8c8ca;stop-opacity:1" id="stop2056" offset="1"/></linearGradient><linearGradient id="linearGradient1784"><stop id="stop1785" offset="0" style="stop-color:#fff;stop-opacity:1"/><stop id="stop1786" offset="1" style="stop-color:#dcdcde;stop-opacity:1"/></linearGradient><linearGradient id="linearGradient1789" x1="250.054" x2="511.689" y1="259.819" y2="549.613" gradientTransform="matrix(1.593044,0,0,1.241206,-129.6924,-73.34169)" gradientUnits="userSpaceOnUse" xlink:href="#linearGradient1784"/><linearGradient id="linearGradient1794" x1="205.673" x2="69.097" y1="1468.668" y2="1222.128" gradientTransform="matrix(2.470094,0,0,0.404843,-5.695438,24.53693)" gradientUnits="userSpaceOnUse" xlink:href="#linearGradient2052"/><linearGradient id="linearGradient1804" x1="1390.407" x2="1180.534" y1="284.347" y2="65.462" gradientTransform="matrix(0.493865,0,0,2.024845,-5.695438,24.53693)" gradientUnits="userSpaceOnUse" xlink:href="#linearGradient2064"/><linearGradient id="linearGradient2083" x1="250.054" x2="511.689" y1="259.819" y2="549.613" gradientTransform="matrix(1.593044,0,0,1.241206,-129.6924,-73.34169)" gradientUnits="userSpaceOnUse" xlink:href="#linearGradient1784"/><linearGradient id="linearGradient2085" x1="205.673" x2="69.097" y1="1468.668" y2="1222.128" gradientTransform="matrix(2.470094,0,0,0.404843,-5.695438,24.53693)" gradientUnits="userSpaceOnUse" xlink:href="#linearGradient2052"/><linearGradient id="linearGradient2087" x1="1390.407" x2="1180.534" y1="284.347" y2="65.462" gradientTransform="matrix(0.493865,0,0,2.024845,-5.695438,24.53693)" gradientUnits="userSpaceOnUse" xlink:href="#linearGradient2064"/><linearGradient id="linearGradient2094" x1="1390.407" x2="1180.534" y1="284.347" y2="65.462" gradientTransform="matrix(0.02351632,0,0,0.119682,11.31112,7.804527)" gradientUnits="userSpaceOnUse" xlink:href="#linearGradient2064"/><linearGradient id="linearGradient2098" x1="205.673" x2="69.097" y1="1468.668" y2="1222.128" gradientTransform="matrix(0.117618,0,0,0.02392903,2.29468,7.804527)" gradientUnits="userSpaceOnUse" xlink:href="#linearGradient2052"/><linearGradient id="linearGradient2101" x1="34.792" x2="13.166" y1="42.567" y2="15.033" gradientTransform="matrix(1.135639,0,0,1.098332,-5.414986,-5.868595)" gradientUnits="userSpaceOnUse" xlink:href="#linearGradient2103"/><linearGradient id="linearGradient2416" x1="34.792" x2="13.166" y1="42.567" y2="15.033" gradientTransform="matrix(1.135639,0,0,1.098332,-5.414986,-5.868595)" gradientUnits="userSpaceOnUse" xlink:href="#linearGradient2103"/><linearGradient id="linearGradient2418" x1="205.673" x2="69.097" y1="1468.668" y2="1222.128" gradientTransform="matrix(0.117618,0,0,0.02392903,2.29468,7.804527)" gradientUnits="userSpaceOnUse" xlink:href="#linearGradient2052"/><linearGradient id="linearGradient2420" x1="1390.407" x2="1180.534" y1="284.347" y2="65.462" gradientTransform="matrix(0.02351632,0,0,0.119682,11.31112,7.804527)" gradientUnits="userSpaceOnUse" xlink:href="#linearGradient2064"/><linearGradient id="linearGradient2721" x1="1390.407" x2="1180.534" y1="284.347" y2="65.462" gradientTransform="matrix(0.02351632,0,0,0.119682,11.31112,9.7235324)" gradientUnits="userSpaceOnUse" xlink:href="#linearGradient2064"/><linearGradient id="linearGradient2725" x1="205.673" x2="69.097" y1="1468.668" y2="1222.128" gradientTransform="matrix(0.117618,0,0,0.02392903,2.29468,9.7235324)" gradientUnits="userSpaceOnUse" xlink:href="#linearGradient2052"/><linearGradient id="linearGradient2728" x1="34.792" x2="13.166" y1="42.567" y2="15.033" gradientTransform="matrix(0.41897523,0,0,1.1183093,1.063587,-6.4401439)" gradientUnits="userSpaceOnUse" xlink:href="#linearGradient2103"/></defs><metadata id="metadata4"/><g id="layer1" transform="translate(-2.3845036,-1.9887758)"><rect id="rect1788" width="14.992" height="39.583" x="4.558" y="4.263" rx="1.324" ry="4.588" style="fill:url(#linearGradient2728);fill-opacity:1;stroke:#000;stroke-width:.54772258;stroke-linecap:round;stroke-linejoin:miter;stroke-miterlimit:4;stroke-opacity:1;stroke-dasharray:none;stroke-dashoffset:0"/><text id="text14572" x="-40.801" y="15.354" transform="matrix(0,-1,1,0,0,0)" xml:space="preserve" style="font-size:10px;font-style:normal;font-variant:normal;font-weight:700;font-stretch:normal;text-align:start;line-height:125%;writing-mode:lr-tb;text-anchor:start;fill:#eee;fill-opacity:1;stroke:none;font-family:Verdana;-inkscape-font-specification:Verdana"><tspan id="tspan14574" x="-40.801" y="15.354" style="font-size:10px;text-align:start;text-anchor:start;fill:#eee;fill-opacity:1">alt</tspan></text><path style="fill:#4b4b4b;fill-opacity:1;stroke:none" id="path3618" d="m 4.852506,40.132178 c 0,-10.223586 0.0049,-30.1890134 0,-31.4662577 C 4.846606,7.1238157 5.346526,5.4537654 5.8071,5.307163 6.114376,5.209356 15.219742,5.366089 18.525466,5.395551 15.272775,5.8669555 6.667767,7.3090946 6.337982,7.3918713 5.858822,7.5121413 5.50086,8.6889866 5.459169,10.851587 5.441229,11.782334 5.002766,30.026444 4.852506,40.132178 z"/><path style="fill:#1e1e1e;fill-opacity:1;stroke:none" id="path3618-6" d="m 19.308126,8.112138 c 0,10.223587 -0.0049,30.277403 0,31.554642 0.0059,1.542105 -0.494021,3.212155 -0.954594,3.358757 -0.307276,0.09781 -9.328606,-0.05893 -12.634331,-0.08839 3.252692,-0.471403 12.266049,-0.624017 12.594556,-0.7513 0.31041,-0.12027 0.693004,-1.426557 0.715945,-2.651651 0.01743,-0.930855 0.128164,-21.316323 0.278424,-31.422058 z"/></g></svg>