<svg xmlns="http://www.w3.org/2000/svg" xmlns:svg="http://www.w3.org/2000/svg" xmlns:xlink="http://www.w3.org/1999/xlink" id="svg1770" width="19.54" height="44.131" version="1.1"><defs id="defs3"><linearGradient id="linearGradient2103"><stop style="stop-color:#2d2d2d;stop-opacity:1" id="stop2105" offset="0"/><stop style="stop-color:#1e1e1e;stop-opacity:1" id="stop2107" offset="1"/></linearGradient><linearGradient id="linearGradient2064"><stop style="stop-color:#b2b2b2;stop-opacity:1" id="stop2066" offset="0"/><stop style="stop-color:#dcdcde;stop-opacity:1" id="stop2068" offset="1"/></linearGradient><linearGradient id="linearGradient2052"><stop style="stop-color:#aaa;stop-opacity:1" id="stop2054" offset="0"/><stop style="stop-color:#c8c8ca;stop-opacity:1" id="stop2056" offset="1"/></linearGradient><linearGradient id="linearGradient1784"><stop id="stop1785" offset="0" style="stop-color:#fff;stop-opacity:1"/><stop id="stop1786" offset="1" style="stop-color:#dcdcde;stop-opacity:1"/></linearGradient><linearGradient id="linearGradient1789" x1="250.054" x2="511.689" y1="259.819" y2="549.613" gradientTransform="matrix(1.593044,0,0,1.241206,-129.6924,-73.34169)" gradientUnits="userSpaceOnUse" xlink:href="#linearGradient1784"/><linearGradient id="linearGradient1794" x1="205.673" x2="69.097" y1="1468.668" y2="1222.128" gradientTransform="matrix(2.470094,0,0,0.404843,-5.695438,24.53693)" gradientUnits="userSpaceOnUse" xlink:href="#linearGradient2052"/><linearGradient id="linearGradient1804" x1="1390.407" x2="1180.534" y1="284.347" y2="65.462" gradientTransform="matrix(0.493865,0,0,2.024845,-5.695438,24.53693)" gradientUnits="userSpaceOnUse" xlink:href="#linearGradient2064"/><linearGradient id="linearGradient2083" x1="250.054" x2="511.689" y1="259.819" y2="549.613" gradientTransform="matrix(1.593044,0,0,1.241206,-129.6924,-73.34169)" gradientUnits="userSpaceOnUse" xlink:href="#linearGradient1784"/><linearGradient id="linearGradient2085" x1="205.673" x2="69.097" y1="1468.668" y2="1222.128" gradientTransform="matrix(2.470094,0,0,0.404843,-5.695438,24.53693)" gradientUnits="userSpaceOnUse" xlink:href="#linearGradient2052"/><linearGradient id="linearGradient2087" x1="1390.407" x2="1180.534" y1="284.347" y2="65.462" gradientTransform="matrix(0.493865,0,0,2.024845,-5.695438,24.53693)" gradientUnits="userSpaceOnUse" xlink:href="#linearGradient2064"/><linearGradient id="linearGradient2094" x1="1390.407" x2="1180.534" y1="284.347" y2="65.462" gradientTransform="matrix(0.02351632,0,0,0.119682,11.31112,7.804527)" gradientUnits="userSpaceOnUse" xlink:href="#linearGradient2064"/><linearGradient id="linearGradient2098" x1="205.673" x2="69.097" y1="1468.668" y2="1222.128" gradientTransform="matrix(0.117618,0,0,0.02392903,2.29468,7.804527)" gradientUnits="userSpaceOnUse" xlink:href="#linearGradient2052"/><linearGradient id="linearGradient2101" x1="34.792" x2="13.166" y1="42.567" y2="15.033" gradientTransform="matrix(1.135639,0,0,1.098332,-5.414986,-5.868595)" gradientUnits="userSpaceOnUse" xlink:href="#linearGradient2103"/><linearGradient id="linearGradient2416" x1="34.792" x2="13.166" y1="42.567" y2="15.033" gradientTransform="matrix(1.135639,0,0,1.098332,-5.414986,-5.868595)" gradientUnits="userSpaceOnUse" xlink:href="#linearGradient2103"/><linearGradient id="linearGradient2418" x1="205.673" x2="69.097" y1="1468.668" y2="1222.128" gradientTransform="matrix(0.117618,0,0,0.02392903,2.29468,7.804527)" gradientUnits="userSpaceOnUse" xlink:href="#linearGradient2052"/><linearGradient id="linearGradient2420" x1="1390.407" x2="1180.534" y1="284.347" y2="65.462" gradientTransform="matrix(0.02351632,0,0,0.119682,11.31112,7.804527)" gradientUnits="userSpaceOnUse" xlink:href="#linearGradient2064"/><linearGradient id="linearGradient2721" x1="1390.407" x2="1180.534" y1="284.347" y2="65.462" gradientTransform="matrix(0.02351632,0,0,0.119682,11.31112,9.7235324)" gradientUnits="userSpaceOnUse" xlink:href="#linearGradient2064"/><linearGradient id="linearGradient2725" x1="205.673" x2="69.097" y1="1468.668" y2="1222.128" gradientTransform="matrix(0.117618,0,0,0.02392903,2.29468,9.7235324)" gradientUnits="userSpaceOnUse" xlink:href="#linearGradient2052"/><linearGradient id="linearGradient2728" x1="34.792" x2="13.166" y1="42.567" y2="15.033" gradientTransform="matrix(0.41897523,0,0,1.1183093,18.063587,-6.4401439)" gradientUnits="userSpaceOnUse" xlink:href="#linearGradient2103"/></defs><metadata id="metadata4"/><g id="layer1" transform="translate(-19.284504,-1.9887758)"><rect id="rect1788" width="14.992" height="39.583" x="21.558" y="4.263" rx="1.324" ry="4.588" style="fill:url(#linearGradient2728);fill-opacity:1;stroke:#000;stroke-width:.54772258;stroke-linecap:round;stroke-linejoin:miter;stroke-miterlimit:4;stroke-opacity:1;stroke-dasharray:none;stroke-dashoffset:0"/><path style="fill:#4b4b4b;fill-opacity:1;stroke:none" id="path3618" d="m 21.852506,40.132178 c 0,-10.223586 0.0049,-30.1890134 0,-31.4662577 -0.0059,-1.5421046 0.49402,-3.2121549 0.954594,-3.3587573 0.307276,-0.097807 9.412642,0.058926 12.718366,0.088388 -3.252691,0.4714045 -11.857699,1.9135436 -12.187484,1.9963203 -0.47916,0.12027 -0.837122,1.2971153 -0.878813,3.4597157 -0.01794,0.930747 -0.456403,19.174857 -0.606663,29.280591 z"/><path style="fill:#1e1e1e;fill-opacity:1;stroke:none" id="path3618-6" d="m 36.308126,8.112138 c 0,10.223587 -0.0049,30.277403 0,31.554642 0.0059,1.542105 -0.494021,3.212155 -0.954594,3.358757 -0.307276,0.09781 -9.328606,-0.05893 -12.634331,-0.08839 3.252692,-0.471403 12.266049,-0.624017 12.594556,-0.7513 0.31041,-0.12027 0.693004,-1.426557 0.715945,-2.651651 0.01743,-0.930855 0.128164,-21.316323 0.278424,-31.422058 z"/><path style="fill:#eee;fill-opacity:1;stroke:none" id="rect2874" d="m 29.215957,36.712045 c 1.498357,0.585269 2.667888,0.543466 4.006694,0.05756 L 33.03677,39.88342 c -1.364655,0.549737 -2.909499,0.543706 -3.975732,0.078 l 0.154919,-3.249376 z"/><path id="path2877" d="m 29.40052,32.999436 c 1.673181,0.416037 2.747741,0.530785 4.082906,0.05655 l -0.23848,3.246524 c -1.428429,0.593422 -2.949583,0.416008 -4.01374,-0.05443 l 0.169314,-3.248655 z" style="fill:#eee;fill-opacity:1;stroke:none"/><path style="fill:#eee;fill-opacity:1;stroke:none" id="path2879" d="m 24.752444,35.657079 c 1.71122,-0.434894 2.791771,-0.0773 4.059763,0.43776 l 0.155994,-3.251533 c -1.47541,-0.611255 -2.877599,-0.769754 -3.990849,-0.431507 l -0.224908,3.24528 z"/><path id="path2881" d="m 24.496192,39.36497 c 1.711222,-0.210584 2.868193,-0.194503 4.136186,0.437758 l 0.155992,-3.251532 c -1.475409,-0.611256 -2.934914,-0.75065 -4.048162,-0.412401 l -0.244016,3.226175 z" style="fill:#eee;fill-opacity:1;stroke:none"/></g></svg>