<svg xmlns="http://www.w3.org/2000/svg" xmlns:svg="http://www.w3.org/2000/svg" xmlns:xlink="http://www.w3.org/1999/xlink" id="svg1770" width="58" height="48" version="1.1"><defs id="defs3"><linearGradient id="linearGradient2103"><stop style="stop-color:#fff;stop-opacity:1" id="stop2105" offset="0"/><stop style="stop-color:#e6e6e6;stop-opacity:1" id="stop2107" offset="1"/></linearGradient><linearGradient id="linearGradient2064"><stop style="stop-color:#b2b2b2;stop-opacity:1" id="stop2066" offset="0"/><stop style="stop-color:#dcdcde;stop-opacity:1" id="stop2068" offset="1"/></linearGradient><linearGradient id="linearGradient2052"><stop style="stop-color:#aaa;stop-opacity:1" id="stop2054" offset="0"/><stop style="stop-color:#c8c8ca;stop-opacity:1" id="stop2056" offset="1"/></linearGradient><linearGradient id="linearGradient1784"><stop id="stop1785" offset="0" style="stop-color:#fff;stop-opacity:1"/><stop id="stop1786" offset="1" style="stop-color:#dcdcde;stop-opacity:1"/></linearGradient><linearGradient id="linearGradient1789" x1="250.054" x2="511.689" y1="259.819" y2="549.613" gradientTransform="matrix(1.593044,0,0,1.241206,-129.6924,-73.34169)" gradientUnits="userSpaceOnUse" xlink:href="#linearGradient1784"/><linearGradient id="linearGradient1794" x1="205.673" x2="69.097" y1="1468.668" y2="1222.128" gradientTransform="matrix(2.470094,0,0,0.404843,-5.695438,24.53693)" gradientUnits="userSpaceOnUse" xlink:href="#linearGradient2052"/><linearGradient id="linearGradient1804" x1="1390.407" x2="1180.534" y1="284.347" y2="65.462" gradientTransform="matrix(0.493865,0,0,2.024845,-5.695438,24.53693)" gradientUnits="userSpaceOnUse" xlink:href="#linearGradient2064"/><linearGradient id="linearGradient2083" x1="250.054" x2="511.689" y1="259.819" y2="549.613" gradientTransform="matrix(1.593044,0,0,1.241206,-129.6924,-73.34169)" gradientUnits="userSpaceOnUse" xlink:href="#linearGradient1784"/><linearGradient id="linearGradient2085" x1="205.673" x2="69.097" y1="1468.668" y2="1222.128" gradientTransform="matrix(2.470094,0,0,0.404843,-5.695438,24.53693)" gradientUnits="userSpaceOnUse" xlink:href="#linearGradient2052"/><linearGradient id="linearGradient2087" x1="1390.407" x2="1180.534" y1="284.347" y2="65.462" gradientTransform="matrix(0.493865,0,0,2.024845,-5.695438,24.53693)" gradientUnits="userSpaceOnUse" xlink:href="#linearGradient2064"/><linearGradient id="linearGradient2094" x1="1390.407" x2="1180.534" y1="284.347" y2="65.462" gradientTransform="matrix(0.02351632,0,0,0.119682,11.31112,7.804527)" gradientUnits="userSpaceOnUse" xlink:href="#linearGradient2064"/><linearGradient id="linearGradient2098" x1="205.673" x2="69.097" y1="1468.668" y2="1222.128" gradientTransform="matrix(0.117618,0,0,0.02392903,2.29468,7.804527)" gradientUnits="userSpaceOnUse" xlink:href="#linearGradient2052"/><linearGradient id="linearGradient2101" x1="34.792" x2="13.166" y1="42.567" y2="15.033" gradientTransform="matrix(1.135639,0,0,1.098332,-5.414986,-5.868595)" gradientUnits="userSpaceOnUse" xlink:href="#linearGradient2103"/><linearGradient id="linearGradient2416" x1="34.792" x2="13.166" y1="42.567" y2="15.033" gradientTransform="matrix(1.135639,0,0,1.098332,-5.414986,-5.868595)" gradientUnits="userSpaceOnUse" xlink:href="#linearGradient2103"/><linearGradient id="linearGradient2418" x1="205.673" x2="69.097" y1="1468.668" y2="1222.128" gradientTransform="matrix(0.117618,0,0,0.02392903,2.29468,7.804527)" gradientUnits="userSpaceOnUse" xlink:href="#linearGradient2052"/><linearGradient id="linearGradient2420" x1="1390.407" x2="1180.534" y1="284.347" y2="65.462" gradientTransform="matrix(0.02351632,0,0,0.119682,11.31112,7.804527)" gradientUnits="userSpaceOnUse" xlink:href="#linearGradient2064"/><linearGradient id="linearGradient2721" x1="1390.407" x2="1180.534" y1="284.347" y2="65.462" gradientTransform="matrix(0.02351632,0,0,0.119682,11.31112,9.7235324)" gradientUnits="userSpaceOnUse" xlink:href="#linearGradient2064"/><linearGradient id="linearGradient2725" x1="205.673" x2="69.097" y1="1468.668" y2="1222.128" gradientTransform="matrix(0.117618,0,0,0.02392903,2.29468,9.7235324)" gradientUnits="userSpaceOnUse" xlink:href="#linearGradient2052"/><linearGradient id="linearGradient2728" x1="34.792" x2="13.166" y1="42.567" y2="15.033" gradientTransform="matrix(1.3965841,0,0,1.1183093,-7.5816242,-6.4401439)" gradientUnits="userSpaceOnUse" xlink:href="#linearGradient2103"/><linearGradient id="linearGradient28093"><stop id="stop28095" offset="0" style="stop-color:#f9f9f9;stop-opacity:1"/><stop id="stop28097" offset="1" style="stop-color:#f2f2f2;stop-opacity:1"/></linearGradient><radialGradient id="radialGradient28255" cx="-370.148" cy="-1281.121" r="247.266" fx="-370.148" fy="-1281.121" gradientTransform="matrix(-0.11809721,0.87245708,-1.6536295,-0.3000831,-3663.8366,-1723.8817)" gradientUnits="userSpaceOnUse" xlink:href="#linearGradient28093"/></defs><metadata id="metadata4"/><g id="layer1"><rect id="rect1788" width="49.974" height="39.583" x="4.068" y="4.263" rx="4.412" ry="4.588" style="fill:url(#linearGradient2728);fill-opacity:1;stroke:#b2b2b2;stroke-width:1;stroke-linecap:round;stroke-linejoin:miter;stroke-miterlimit:4;stroke-opacity:1;stroke-dasharray:none;stroke-dashoffset:0"/><path style="fill:#fff;fill-opacity:1;stroke:none" id="path3032" d="m 8.25,4.8125 c -2.0310478,0 -3.65625,1.7885986 -3.65625,4 l 0,1.28125 C 4.59375,8.0970873 6.2189522,6.5 8.25,6.5 l 41.59375,0 c 2.031048,0 3.6875,1.5970873 3.6875,3.59375 l 0,-1.28125 c 0,-2.2114014 -1.656452,-4 -3.6875,-4 l -41.59375,0 z"/><path style="fill:#b2b2b2;fill-opacity:1;stroke:none" id="rect3021" d="m 4.59375,38.246307 0,1.65625 c 0,2.211401 1.6252022,4 3.65625,4 l 41.59375,0 c 2.031048,0 3.6875,-1.788599 3.6875,-4 l 0,-1.65625 c 0,1.996663 -1.656452,3.59375 -3.6875,3.59375 l -41.59375,0 c -2.0310478,0 -3.65625,-1.597087 -3.65625,-3.59375 z"/><path style="fill:none;stroke:#4d4d4d;stroke-width:2.07900000000000018;stroke-linecap:butt;stroke-linejoin:miter;stroke-miterlimit:4;stroke-opacity:1;stroke-dasharray:none" id="path3620" d="m 25.965495,27.200875 c -0.221044,6.215791 -2.853494,6.155439 -6.69165,6.095092 0.02009,-3.640964 -0.562661,-5.712893 6.812222,-5.974401 3.335777,-0.04022 3.295585,-0.08046 6.631364,-0.120692 6.872506,-0.04022 6.638954,2.725106 6.631364,6.034748 -3.899996,0.140075 -6.189273,0.201157 -6.510795,-6.034748 0,-3.258763 0,-3.138067 0,-6.39683 -0.200949,-5.672663 2.250646,-5.914051 6.390225,-5.672663 0.196147,3.132626 0.874574,5.90317 -6.404637,5.656339 -3.411354,0.0054 -3.446738,0.01097 -6.858093,0.01633 -7.194028,0.241387 -7.274407,-1.93112 -7.234217,-5.431272 4.420911,-0.24139 7.274407,-0.482779 7.234217,5.431272 0,3.258763 0,3.138068 0,6.396831 z"/></g></svg>