<svg xmlns="http://www.w3.org/2000/svg" xmlns:svg="http://www.w3.org/2000/svg" xmlns:xlink="http://www.w3.org/1999/xlink" id="svg1770" width="40" height="48" version="1.1"><defs id="defs3"><marker id="EmptyTriangleOutL" orient="auto" refX="0" refY="0" style="overflow:visible"><path id="path4344" d="m 5.77,0 -8.65,5 0,-10 8.65,5 z" transform="matrix(0.8,0,0,0.8,-4.8,0)" style="fill:#fff;fill-rule:evenodd;stroke:#000;stroke-width:1pt;marker-start:none"/></marker><marker id="Arrow2Lend" orient="auto" refX="0" refY="0" style="overflow:visible"><path id="path4204" d="M 8.7185878,4.0337352 -2.2072895,0.01601326 8.7185884,-4.0017078 c -1.7454984,2.3720609 -1.7354408,5.6174519 -6e-7,8.035443 z" transform="matrix(-1.1,0,0,-1.1,-1.1,0)" style="font-size:12px;fill-rule:evenodd;stroke-width:.625;stroke-linejoin:round"/></marker><linearGradient id="linearGradient3678"><stop style="stop-color:#1f97ff;stop-opacity:0" id="stop3680" offset="0"/><stop style="stop-color:#09a6ff;stop-opacity:.50862068" id="stop3682" offset="1"/></linearGradient><linearGradient id="linearGradient3934"><stop id="stop3936" offset="0" style="stop-color:#989b9e;stop-opacity:.048"/><stop style="stop-color:#8e99a4;stop-opacity:.44800001" id="stop3940" offset=".5"/><stop id="stop3938" offset="1" style="stop-color:#a0a0a0;stop-opacity:.12800001"/></linearGradient><linearGradient id="linearGradient4270"><stop style="stop-color:#000;stop-opacity:1" id="stop4272" offset="0"/><stop style="stop-color:#f3f3f3;stop-opacity:.94509804" id="stop4274" offset="1"/></linearGradient><linearGradient id="linearGradient4256"><stop style="stop-color:#989b9e;stop-opacity:.81960785" id="stop4258" offset="0"/><stop style="stop-color:#729fcf;stop-opacity:0" id="stop4260" offset="1"/></linearGradient><linearGradient id="linearGradient4237"><stop style="stop-color:#d2d2d2;stop-opacity:.66399997" id="stop4239" offset="0"/><stop style="stop-color:#000;stop-opacity:0" id="stop4241" offset="1"/></linearGradient><linearGradient id="linearGradient2103"><stop style="stop-color:#fff;stop-opacity:1" id="stop2105" offset="0"/><stop style="stop-color:#ebebed;stop-opacity:1" id="stop2107" offset="1"/></linearGradient><linearGradient id="linearGradient2064"><stop style="stop-color:#b2b2b2;stop-opacity:1" id="stop2066" offset="0"/><stop style="stop-color:#dcdcde;stop-opacity:1" id="stop2068" offset="1"/></linearGradient><linearGradient id="linearGradient2052"><stop style="stop-color:#aaa;stop-opacity:1" id="stop2054" offset="0"/><stop style="stop-color:#c8c8ca;stop-opacity:1" id="stop2056" offset="1"/></linearGradient><linearGradient id="linearGradient1784"><stop id="stop1785" offset="0" style="stop-color:#fff;stop-opacity:1"/><stop id="stop1786" offset="1" style="stop-color:#dcdcde;stop-opacity:1"/></linearGradient><linearGradient id="linearGradient1789" x1="250.054" x2="511.689" y1="259.819" y2="549.613" gradientTransform="matrix(1.593044,0,0,1.241206,-129.6924,-73.34169)" gradientUnits="userSpaceOnUse" xlink:href="#linearGradient1784"/><linearGradient id="linearGradient1794" x1="205.673" x2="69.097" y1="1468.668" y2="1222.128" gradientTransform="matrix(2.470094,0,0,0.404843,-5.695438,24.53693)" gradientUnits="userSpaceOnUse" xlink:href="#linearGradient2052"/><linearGradient id="linearGradient1804" x1="1390.407" x2="1180.534" y1="284.347" y2="65.462" gradientTransform="matrix(0.493865,0,0,2.024845,-5.695438,24.53693)" gradientUnits="userSpaceOnUse" xlink:href="#linearGradient2064"/><linearGradient id="linearGradient2083" x1="250.054" x2="511.689" y1="259.819" y2="549.613" gradientTransform="matrix(1.593044,0,0,1.241206,-129.6924,-73.34169)" gradientUnits="userSpaceOnUse" xlink:href="#linearGradient1784"/><linearGradient id="linearGradient2085" x1="205.673" x2="69.097" y1="1468.668" y2="1222.128" gradientTransform="matrix(2.470094,0,0,0.404843,-5.695438,24.53693)" gradientUnits="userSpaceOnUse" xlink:href="#linearGradient2052"/><linearGradient id="linearGradient2087" x1="1390.407" x2="1180.534" y1="284.347" y2="65.462" gradientTransform="matrix(0.493865,0,0,2.024845,-5.695438,24.53693)" gradientUnits="userSpaceOnUse" xlink:href="#linearGradient2064"/><linearGradient id="linearGradient4276" x1="31.36" x2="3.772" y1="8.405" y2="8.405" gradientUnits="userSpaceOnUse" xlink:href="#linearGradient4270"/><linearGradient id="linearGradient4279" x1="31.36" x2="3.772" y1="8.405" y2="8.405" gradientUnits="userSpaceOnUse" xlink:href="#linearGradient4270"/><linearGradient id="linearGradient4282" x1="31.36" x2="3.772" y1="8.405" y2="8.405" gradientTransform="matrix(0.95441168,0,0,1.0019796,0.06374325,-0.13118077)" gradientUnits="userSpaceOnUse" xlink:href="#linearGradient4270"/><linearGradient id="linearGradient5280" x1="31.36" x2="3.772" y1="8.405" y2="8.405" gradientTransform="matrix(0.95441168,0,0,1.0019796,0.06374325,-0.13118077)" gradientUnits="userSpaceOnUse" xlink:href="#linearGradient4270"/><linearGradient id="linearGradient2728" x1="34.792" x2="13.166" y1="42.567" y2="15.033" gradientTransform="matrix(1.135639,0,0,1.098332,-5.414986,-3.9495896)" gradientUnits="userSpaceOnUse" xlink:href="#linearGradient2103-4"/><linearGradient id="linearGradient2103-4"><stop style="stop-color:#fff;stop-opacity:1" id="stop2105-2" offset="0"/><stop style="stop-color:#e6e6e6;stop-opacity:1" id="stop2107-7" offset="1"/></linearGradient><linearGradient id="linearGradient3787" x1="14.668" x2="34.617" y1="14.211" y2="41.805" gradientTransform="matrix(0.82840152,0,0,1.100837,-1.5479106,-5.880452)" gradientUnits="userSpaceOnUse" xlink:href="#linearGradient2103-4"/><linearGradient id="linearGradient3787-6" x1="34.792" x2="13.166" y1="42.567" y2="15.033" gradientTransform="matrix(0.82844108,0,0,1.098332,2.4510484,-5.7663828)" gradientUnits="userSpaceOnUse" xlink:href="#linearGradient2103-4-4"/><linearGradient id="linearGradient2103-4-4"><stop style="stop-color:#fff;stop-opacity:1" id="stop2105-2-3" offset="0"/><stop style="stop-color:#e6e6e6;stop-opacity:1" id="stop2107-7-0" offset="1"/></linearGradient></defs><metadata id="metadata4"/><g id="layer1"><path style="fill:url(#linearGradient3787);fill-opacity:1;stroke:#000;stroke-width:1.29944825;stroke-linecap:round;stroke-linejoin:miter;stroke-miterlimit:4;stroke-opacity:1;stroke-dashoffset:0" id="rect1788" d="m 13.254206,4.6551094 c 4.619336,-0.4590598 9.330269,-0.4590598 13.858005,0 4.372286,0 7.892213,3.525249 7.892213,7.9041456 0.549591,7.718793 0.549591,15.529396 0,23.156376 0,4.378897 -3.519927,7.904146 -7.892213,7.904146 -4.436138,0.459059 -9.330268,0.367247 -13.858005,0 -4.372285,0 -7.8922117,-3.525249 -7.8922117,-7.904146 -0.3663947,-7.718792 -0.3663947,-15.437583 0,-23.156376 0,-4.3788966 3.5199267,-7.9041456 7.8922117,-7.9041456 z"/><rect style="opacity:.03999999;fill:#000;fill-opacity:1;stroke:none" id="rect2870" width="2.931" height="11.359" x="18.534" y="-19.145" rx="4.412" ry="4.588" transform="scale(1,-1)"/><path style="font-size:medium;font-style:normal;font-variant:normal;font-weight:400;font-stretch:normal;text-indent:0;text-align:start;text-decoration:none;line-height:normal;letter-spacing:normal;word-spacing:normal;text-transform:none;direction:ltr;block-progression:tb;writing-mode:lr-tb;text-anchor:start;color:#000;fill:#fff;fill-opacity:1;fill-rule:nonzero;stroke:none;stroke-width:1.29799998;marker:none;visibility:visible;display:inline;overflow:visible;enable-background:accumulate;font-family:Bitstream Charter;-inkscape-font-specification:Bitstream Charter" id="path65" d="m 20.25,4.9731282 c -2.1373,6e-7 -4.278485,0.101058 -6.405944,0.3132127 -0.02071,0.00206 -0.0418,-0.00208 -0.0625,0 -4.337236,0.034563 -7.8577619,3.5936694 -7.874624,7.9869241 -4.08e-5,0.01063 0,0.02068 0,0.03132 -0.3362483,7.199506 -0.3362483,14.412172 0,21.611678 0,0.01074 -4.16e-5,0.02059 0,0.03132 0.017018,4.393119 3.537486,7.952363 7.874624,7.986924 0.0212,1.7e-4 0.04126,0 0.0625,0 4.159322,0.339165 8.644426,0.425058 12.749391,0 0.02124,0 0.0413,1.7e-4 0.0625,0 4.337138,-0.03456 7.826357,-3.593805 7.843376,-7.986924 4.2e-5,-0.01073 0,-0.02058 0,-0.03132 0.505173,-7.125701 0.505104,-14.401564 0,-21.611678 0,-0.01064 4.1e-5,-0.02069 0,-0.03132 -0.01686,-4.3932548 -3.50614,-7.9523616 -7.843376,-7.9869241 -0.0205,-0.0021 -0.04199,0.00208 -0.0625,0 C 24.506663,5.0740955 22.387098,4.9731276 20.25,4.9731282 z m 0,1.2841721 c 2.114848,6e-7 4.219884,0.1014416 6.28095,0.3132127 l 0.03125,0 0.03125,0 c 3.671787,0 6.624684,2.9942237 6.624684,6.734073 l 0,0.03132 0,0.03132 c 0.503718,7.169396 0.503639,14.403376 0,21.486392 l 0,0.03132 0,0.03132 c 0,3.73985 -2.952897,6.702752 -6.624684,6.702752 l -0.03125,0 -0.03125,0 c -4.025212,0.422123 -8.517271,0.340169 -12.655646,0 l -0.03125,0 c -3.671787,0 -6.624684,-2.962902 -6.624684,-6.702752 l 0,-0.03132 c -0.336298,-7.179777 -0.336298,-14.369257 0,-21.549034 l 0,-0.03132 c 0,-3.7398494 2.952897,-6.734073 6.624684,-6.734073 l 0.03125,0 0.03125,0 C 16.010655,6.3586071 18.135152,6.2572997 20.25,6.2573003 z"/><text id="text14572" x="20.061" y="35.639" xml:space="preserve" style="font-size:14px;font-style:normal;font-variant:normal;font-weight:700;font-stretch:normal;text-align:center;line-height:125%;writing-mode:lr-tb;text-anchor:middle;fill:#08b2ff;fill-opacity:1;stroke:none;font-family:Verdana;-inkscape-font-specification:Verdana"><tspan id="tspan14574" x="20.061" y="35.639" style="font-size:14px;fill:#08b2ff;fill-opacity:1">​</tspan></text></g></svg>