<svg xmlns="http://www.w3.org/2000/svg" xmlns:svg="http://www.w3.org/2000/svg" xmlns:xlink="http://www.w3.org/1999/xlink" id="svg1770" width="48" height="48" version="1.1"><defs id="defs3"><linearGradient id="linearGradient3934"><stop id="stop3936" offset="0" style="stop-color:#989b9e;stop-opacity:.048"/><stop style="stop-color:#8e99a4;stop-opacity:.44800001" id="stop3940" offset=".5"/><stop id="stop3938" offset="1" style="stop-color:#a0a0a0;stop-opacity:.12800001"/></linearGradient><linearGradient id="linearGradient4270"><stop style="stop-color:#000;stop-opacity:1" id="stop4272" offset="0"/><stop style="stop-color:#f3f3f3;stop-opacity:.94509804" id="stop4274" offset="1"/></linearGradient><linearGradient id="linearGradient4256"><stop style="stop-color:#989b9e;stop-opacity:.81960785" id="stop4258" offset="0"/><stop style="stop-color:#729fcf;stop-opacity:0" id="stop4260" offset="1"/></linearGradient><linearGradient id="linearGradient4237"><stop style="stop-color:#d2d2d2;stop-opacity:.66399997" id="stop4239" offset="0"/><stop style="stop-color:#000;stop-opacity:0" id="stop4241" offset="1"/></linearGradient><linearGradient id="linearGradient2103"><stop style="stop-color:#fff;stop-opacity:1" id="stop2105" offset="0"/><stop style="stop-color:#ebebed;stop-opacity:1" id="stop2107" offset="1"/></linearGradient><linearGradient id="linearGradient2064"><stop style="stop-color:#b2b2b2;stop-opacity:1" id="stop2066" offset="0"/><stop style="stop-color:#dcdcde;stop-opacity:1" id="stop2068" offset="1"/></linearGradient><linearGradient id="linearGradient2052"><stop style="stop-color:#aaa;stop-opacity:1" id="stop2054" offset="0"/><stop style="stop-color:#c8c8ca;stop-opacity:1" id="stop2056" offset="1"/></linearGradient><linearGradient id="linearGradient1784"><stop id="stop1785" offset="0" style="stop-color:#fff;stop-opacity:1"/><stop id="stop1786" offset="1" style="stop-color:#dcdcde;stop-opacity:1"/></linearGradient><linearGradient id="linearGradient1789" x1="250.054" x2="511.689" y1="259.819" y2="549.613" gradientTransform="matrix(1.593044,0.000000,0.000000,1.241206,-129.6924,-73.34169)" gradientUnits="userSpaceOnUse" xlink:href="#linearGradient1784"/><linearGradient id="linearGradient1794" x1="205.673" x2="69.097" y1="1468.668" y2="1222.128" gradientTransform="matrix(2.470094,0.000000,0.000000,0.404843,-5.695438,24.53693)" gradientUnits="userSpaceOnUse" xlink:href="#linearGradient2052"/><linearGradient id="linearGradient1804" x1="1390.407" x2="1180.534" y1="284.347" y2="65.462" gradientTransform="matrix(0.493865,0.000000,0.000000,2.024845,-5.695438,24.53693)" gradientUnits="userSpaceOnUse" xlink:href="#linearGradient2064"/><linearGradient id="linearGradient2083" x1="250.054" x2="511.689" y1="259.819" y2="549.613" gradientTransform="matrix(1.593044,0.000000,0.000000,1.241206,-129.6924,-73.34169)" gradientUnits="userSpaceOnUse" xlink:href="#linearGradient1784"/><linearGradient id="linearGradient2085" x1="205.673" x2="69.097" y1="1468.668" y2="1222.128" gradientTransform="matrix(2.470094,0.000000,0.000000,0.404843,-5.695438,24.53693)" gradientUnits="userSpaceOnUse" xlink:href="#linearGradient2052"/><linearGradient id="linearGradient2087" x1="1390.407" x2="1180.534" y1="284.347" y2="65.462" gradientTransform="matrix(0.493865,0.000000,0.000000,2.024845,-5.695438,24.53693)" gradientUnits="userSpaceOnUse" xlink:href="#linearGradient2064"/><linearGradient id="linearGradient4276" x1="31.36" x2="3.772" y1="8.405" y2="8.405" gradientUnits="userSpaceOnUse" xlink:href="#linearGradient4270"/><linearGradient id="linearGradient4279" x1="31.36" x2="3.772" y1="8.405" y2="8.405" gradientUnits="userSpaceOnUse" xlink:href="#linearGradient4270"/><linearGradient id="linearGradient4282" x1="31.36" x2="3.772" y1="8.405" y2="8.405" gradientTransform="matrix(0.95441168,0,0,1.0019796,0.06374325,-0.13118077)" gradientUnits="userSpaceOnUse" xlink:href="#linearGradient4270"/><linearGradient id="linearGradient3932" x1="21.281" x2="39.969" y1="28.5" y2="28.5" gradientUnits="userSpaceOnUse" xlink:href="#linearGradient3934"/><linearGradient id="linearGradient5280" x1="31.36" x2="3.772" y1="8.405" y2="8.405" gradientTransform="matrix(0.95441168,0,0,1.0019796,0.06374325,-0.13118077)" gradientUnits="userSpaceOnUse" xlink:href="#linearGradient4270"/><linearGradient id="linearGradient5283" x1="31.36" x2="3.772" y1="8.405" y2="8.405" gradientTransform="matrix(0.93918032,0,0,0.53226104,-1.973937,-2.1881275)" gradientUnits="userSpaceOnUse" xlink:href="#linearGradient4270"/></defs><metadata id="metadata4"/><g id="layer1"><path style="fill:#000;fill-opacity:.57268719;fill-rule:evenodd;stroke:none" id="rect4245" d="m 17.14101,6.9235407 22.087617,0 c 2.406709,0 4.34424,2.8193919 4.34424,6.3215053 l 0,25.650725 c 0,3.502115 -1.937531,6.321502 -4.34424,6.321502 l -22.087617,0 c -2.40671,0 -4.344243,-2.819387 -4.344243,-6.321502 l 0,-25.650725 c 0,-3.5021134 1.937533,-6.3215053 4.344243,-6.3215053 z"/><rect style="fill:#eeeeec;fill-opacity:1;fill-rule:evenodd;stroke:#000;stroke-width:1.19839036px;stroke-linecap:butt;stroke-linejoin:miter;stroke-opacity:1" id="rect3159" width="30.776" height="38.294" x="10.917" y="4.783" rx="4.344" ry="6.322"/><path id="path4184" d="m 30.588876,5.3928949 0,13.3485241 1.235762,0 0,-13.3485241 -1.235762,0 z m -19.104898,13.2229881 0,1.297192 29.567701,0 0,-1.297192 -29.567701,0 z m 9.465934,-13.2229881 0,13.3178101 1.235763,-0.01954 0,-13.298285 -1.235763,0 z" style="font-size:medium;font-style:normal;font-variant:normal;font-weight:400;font-stretch:normal;text-indent:0;text-align:start;text-decoration:none;line-height:normal;letter-spacing:normal;word-spacing:normal;text-transform:none;direction:ltr;block-progression:tb;writing-mode:lr-tb;text-anchor:start;color:#000;fill:#babdb6;fill-opacity:.70484577;stroke:none;stroke-width:.92774427px;marker:none;visibility:visible;display:inline;overflow:visible;enable-background:accumulate;font-family:aakar;-inkscape-font-specification:aakar"/><rect style="fill:#000;fill-opacity:1;stroke:#000;stroke-width:1.12951183;stroke-opacity:1" id="rect4190" width="1.681" height="10.768" x="25.611" y="7.082" rx="3.166" ry="6.27"/><path style="fill:none;stroke:#838383;stroke-width:1.32855141px;stroke-linecap:round;stroke-linejoin:miter;stroke-opacity:.49760766" id="path4266" d="m 22.934488,39.998111 c 2.246935,0 4.493875,0 6.740812,0"/><path style="fill:url(#linearGradient3932);fill-opacity:1;stroke:none" id="path4227" d="m 22.25,16.53125 c -0.0031,0 -0.100587,-0.03224 -0.40625,0.40625 -0.282603,0.405405 -0.5625,1.149262 -0.5625,2 l 0,19.125 c 0,0.850738 0.279897,1.594595 0.5625,2 0.305663,0.438487 0.403165,0.40625 0.40625,0.40625 l 16.75,0 c 0.0031,0 0.100587,0.03224 0.40625,-0.40625 0.282603,-0.405405 0.5625,-1.149262 0.5625,-2 l 0,-19.125 c 0,-0.850738 -0.279897,-1.594595 -0.5625,-2 C 39.100587,16.499013 39.003085,16.53125 39,16.53125 l -16.75,0 z" transform="matrix(1.6303485,0,0,1.5638449,-23.284165,-20.666886)"/><path style="fill:none;stroke:#fff;stroke-width:.57964265;stroke-linecap:butt;stroke-linejoin:miter;stroke-miterlimit:4;stroke-opacity:1;stroke-dasharray:none" id="path6681" d="m 22.25,14.875 c -0.648831,0 -1.277741,0.371446 -1.78125,1.09375 -0.507713,0.728335 -0.84375,1.786788 -0.84375,2.96875 l 0,19.125 c 0,1.181962 0.336037,2.240415 0.84375,2.96875 0.503509,0.722304 1.132419,1.09375 1.78125,1.09375 l 16.75,0 c 0.648831,0 1.277741,-0.371446 1.78125,-1.09375 0.507713,-0.728335 0.84375,-1.786788 0.84375,-2.96875 l 0,-19.125 c 0,-1.181962 -0.336037,-2.240415 -0.84375,-2.96875 C 40.277741,15.246446 39.648831,14.875 39,14.875 l -16.75,0 z" transform="matrix(1.3181486,0,0,1.3390368,-14.06341,-14.232363)"/><path style="fill:none;stroke:url(#linearGradient5283);stroke-width:1.30784404;stroke-linecap:butt;stroke-linejoin:miter;stroke-miterlimit:4;stroke-opacity:1;stroke-dasharray:none" id="path4268" d="M 26.888142,5.2073215 C 27.026917,3.2602875 25.584939,0.764685 21.044361,-0.2969757 9.516628,-3.5548386 8.325096,7.090909 2.538856,2.7010706 1.3895753,1.8291474 0.0590285,0.3640534 -1.5697818,-1.9209761"/><text style="font-size:18px;font-style:normal;font-variant:normal;font-weight:400;font-stretch:normal;text-align:center;line-height:125%;letter-spacing:0;word-spacing:0;text-anchor:middle;fill:#500;fill-opacity:.78431373;stroke:none;font-family:Bitstream Vera Sans;-inkscape-font-specification:Bitstream Vera Sans" id="text3560" x="26.742" y="35.473" xml:space="preserve"><tspan id="tspan3562" x="26.742" y="35.473">​</tspan></text></g></svg>