<svg xmlns="http://www.w3.org/2000/svg" xmlns:svg="http://www.w3.org/2000/svg" xmlns:xlink="http://www.w3.org/1999/xlink" id="svg1770" width="58" height="48" version="1.1"><defs id="defs3"><linearGradient id="linearGradient2103"><stop style="stop-color:#fff;stop-opacity:1" id="stop2105" offset="0"/><stop style="stop-color:#e6e6e6;stop-opacity:1" id="stop2107" offset="1"/></linearGradient><linearGradient id="linearGradient2064"><stop style="stop-color:#b2b2b2;stop-opacity:1" id="stop2066" offset="0"/><stop style="stop-color:#dcdcde;stop-opacity:1" id="stop2068" offset="1"/></linearGradient><linearGradient id="linearGradient2052"><stop style="stop-color:#aaa;stop-opacity:1" id="stop2054" offset="0"/><stop style="stop-color:#c8c8ca;stop-opacity:1" id="stop2056" offset="1"/></linearGradient><linearGradient id="linearGradient1784"><stop id="stop1785" offset="0" style="stop-color:#fff;stop-opacity:1"/><stop id="stop1786" offset="1" style="stop-color:#dcdcde;stop-opacity:1"/></linearGradient><linearGradient id="linearGradient1789" x1="250.054" x2="511.689" y1="259.819" y2="549.613" gradientTransform="matrix(1.593044,0,0,1.241206,-129.6924,-73.34169)" gradientUnits="userSpaceOnUse" xlink:href="#linearGradient1784"/><linearGradient id="linearGradient1794" x1="205.673" x2="69.097" y1="1468.668" y2="1222.128" gradientTransform="matrix(2.470094,0,0,0.404843,-5.695438,24.53693)" gradientUnits="userSpaceOnUse" xlink:href="#linearGradient2052"/><linearGradient id="linearGradient1804" x1="1390.407" x2="1180.534" y1="284.347" y2="65.462" gradientTransform="matrix(0.493865,0,0,2.024845,-5.695438,24.53693)" gradientUnits="userSpaceOnUse" xlink:href="#linearGradient2064"/><linearGradient id="linearGradient2083" x1="250.054" x2="511.689" y1="259.819" y2="549.613" gradientTransform="matrix(1.593044,0,0,1.241206,-129.6924,-73.34169)" gradientUnits="userSpaceOnUse" xlink:href="#linearGradient1784"/><linearGradient id="linearGradient2085" x1="205.673" x2="69.097" y1="1468.668" y2="1222.128" gradientTransform="matrix(2.470094,0,0,0.404843,-5.695438,24.53693)" gradientUnits="userSpaceOnUse" xlink:href="#linearGradient2052"/><linearGradient id="linearGradient2087" x1="1390.407" x2="1180.534" y1="284.347" y2="65.462" gradientTransform="matrix(0.493865,0,0,2.024845,-5.695438,24.53693)" gradientUnits="userSpaceOnUse" xlink:href="#linearGradient2064"/><linearGradient id="linearGradient2094" x1="1390.407" x2="1180.534" y1="284.347" y2="65.462" gradientTransform="matrix(0.02351632,0,0,0.119682,11.31112,7.804527)" gradientUnits="userSpaceOnUse" xlink:href="#linearGradient2064"/><linearGradient id="linearGradient2098" x1="205.673" x2="69.097" y1="1468.668" y2="1222.128" gradientTransform="matrix(0.117618,0,0,0.02392903,2.29468,7.804527)" gradientUnits="userSpaceOnUse" xlink:href="#linearGradient2052"/><linearGradient id="linearGradient2101" x1="34.792" x2="13.166" y1="42.567" y2="15.033" gradientTransform="matrix(1.135639,0,0,1.098332,-5.414986,-5.868595)" gradientUnits="userSpaceOnUse" xlink:href="#linearGradient2103"/><linearGradient id="linearGradient2416" x1="34.792" x2="13.166" y1="42.567" y2="15.033" gradientTransform="matrix(1.135639,0,0,1.098332,-5.414986,-5.868595)" gradientUnits="userSpaceOnUse" xlink:href="#linearGradient2103"/><linearGradient id="linearGradient2418" x1="205.673" x2="69.097" y1="1468.668" y2="1222.128" gradientTransform="matrix(0.117618,0,0,0.02392903,2.29468,7.804527)" gradientUnits="userSpaceOnUse" xlink:href="#linearGradient2052"/><linearGradient id="linearGradient2420" x1="1390.407" x2="1180.534" y1="284.347" y2="65.462" gradientTransform="matrix(0.02351632,0,0,0.119682,11.31112,7.804527)" gradientUnits="userSpaceOnUse" xlink:href="#linearGradient2064"/><linearGradient id="linearGradient2721" x1="1390.407" x2="1180.534" y1="284.347" y2="65.462" gradientTransform="matrix(0.02351632,0,0,0.119682,11.31112,9.7235324)" gradientUnits="userSpaceOnUse" xlink:href="#linearGradient2064"/><linearGradient id="linearGradient2725" x1="205.673" x2="69.097" y1="1468.668" y2="1222.128" gradientTransform="matrix(0.117618,0,0,0.02392903,2.29468,9.7235324)" gradientUnits="userSpaceOnUse" xlink:href="#linearGradient2052"/><linearGradient id="linearGradient2728" x1="34.792" x2="13.166" y1="42.567" y2="15.033" gradientTransform="matrix(1.3965841,0,0,1.1183093,-7.5816242,-6.4401439)" gradientUnits="userSpaceOnUse" xlink:href="#linearGradient2103"/><linearGradient id="linearGradient28093"><stop id="stop28095" offset="0" style="stop-color:#f9f9f9;stop-opacity:1"/><stop id="stop28097" offset="1" style="stop-color:#f2f2f2;stop-opacity:1"/></linearGradient><radialGradient id="radialGradient28255" cx="-370.148" cy="-1281.121" r="247.266" fx="-370.148" fy="-1281.121" gradientTransform="matrix(-0.11809721,0.87245708,-1.6536295,-0.3000831,-3663.8366,-1723.8817)" gradientUnits="userSpaceOnUse" xlink:href="#linearGradient28093"/></defs><metadata id="metadata4"/><g id="layer1"><rect id="rect1788" width="49.974" height="39.583" x="4.068" y="4.263" rx="4.412" ry="4.588" style="fill:url(#linearGradient2728);fill-opacity:1;stroke:#b2b2b2;stroke-width:1;stroke-linecap:round;stroke-linejoin:miter;stroke-miterlimit:4;stroke-opacity:1;stroke-dasharray:none;stroke-dashoffset:0"/><path id="path6056" d="m 33.048329,18.141359 c 0.826444,0.477258 1.88293,0.194161 2.359871,-0.632053 0.477184,-0.826502 0.194338,-1.88295 -0.632184,-2.360136 -0.826357,-0.476969 -1.882763,-0.193945 -2.359948,0.632555 -0.477019,0.826143 -0.194017,1.882593 0.632261,2.359634 z m -3.536557,11.173688 c -0.759866,0 -1.479958,-0.168942 -2.126335,-0.469612 l -1.200691,2.151618 c 1.002937,0.496613 2.132064,0.777209 3.327026,0.777209 0.694939,0 1.36689,-0.09629 2.00546,-0.273096 0.112992,-0.694059 0.525089,-1.333687 1.182097,-1.713077 0.655834,-0.378676 1.414866,-0.416179 2.071873,-0.167872 1.277725,-1.256395 2.109155,-2.965758 2.230194,-4.869353 l -2.462728,-0.03572 c -0.226635,2.578582 -2.389838,4.600044 -5.026896,4.600044 z m 0,-10.09545 c 2.637058,0 4.800261,2.02189 5.026896,4.600044 l 2.462728,-0.03572 c -0.121209,-1.903381 -0.952633,-3.612745 -2.230522,-4.869067 -0.656922,0.248164 -1.415873,0.210517 -2.071797,-0.168159 -0.65692,-0.379246 -1.068942,-1.018801 -1.181923,-1.712934 -0.638492,-0.176657 -1.310443,-0.273023 -2.005382,-0.273023 -1.194962,0 -2.324002,0.280523 -3.326861,0.777281 l 1.200605,2.151403 c 0.646298,-0.30067 1.36639,-0.469613 2.126256,-0.469613 z m -5.047655,5.047725 c 0,-1.707791 0.848697,-3.216137 2.146346,-4.129503 l -1.263282,-2.116255 c -1.512168,1.010374 -2.637144,2.554865 -3.104372,4.363952 0.545842,0.444896 0.894601,1.122455 0.894601,1.88195 0,0.759423 -0.348838,1.436981 -0.894686,1.881734 0.467148,1.809229 1.592125,3.353721 3.104379,4.364095 l 1.26336,-2.116326 c -1.297649,-0.913294 -2.146346,-2.421641 -2.146346,-4.129647 z m 8.584464,6.125891 c -0.82653,0.477185 -1.109532,1.533491 -0.632428,2.359707 0.477185,0.8265 1.533506,1.109668 2.360028,0.632482 0.826278,-0.477112 1.109367,-1.53349 0.632184,-2.359919 -0.477022,-0.826143 -1.533506,-1.109312 -2.359784,-0.63227 z M 20.710719,22.539528 c -0.95454,0 -1.728022,0.773426 -1.728022,1.727938 0,0.954296 0.773482,1.727793 1.728022,1.727793 0.954205,0 1.727766,-0.773497 1.727766,-1.727793 0,-0.954512 -0.773561,-1.727938 -1.727766,-1.727938 m 21.744032,1.727938 c 0,7.147908 -5.794892,12.94284 -12.943228,12.94284 -7.148175,0 -12.94273,-5.794932 -12.94273,-12.94284 0,-7.14841 5.794555,-12.943056 12.94273,-12.943056 7.148336,0 12.943228,5.794646 12.943228,12.943056" style="fill:#4d4d4d;fill-opacity:1;fill-rule:nonzero;stroke:none"/><path style="fill:#fff;fill-opacity:1;stroke:none" id="path3032" d="m 8.25,4.8125 c -2.0310478,0 -3.65625,1.7885986 -3.65625,4 l 0,1.28125 C 4.59375,8.0970873 6.2189522,6.5 8.25,6.5 l 41.59375,0 c 2.031048,0 3.6875,1.5970873 3.6875,3.59375 l 0,-1.28125 c 0,-2.2114014 -1.656452,-4 -3.6875,-4 l -41.59375,0 z"/><path style="fill:#b2b2b2;fill-opacity:1;stroke:none" id="rect3021" d="m 4.59375,38.246307 0,1.65625 c 0,2.211401 1.6252022,4 3.65625,4 l 41.59375,0 c 2.031048,0 3.6875,-1.788599 3.6875,-4 l 0,-1.65625 c 0,1.996663 -1.656452,3.59375 -3.6875,3.59375 l -41.59375,0 c -2.0310478,0 -3.65625,-1.597087 -3.65625,-3.59375 z"/></g></svg>