<svg xmlns="http://www.w3.org/2000/svg" xmlns:svg="http://www.w3.org/2000/svg" xmlns:xlink="http://www.w3.org/1999/xlink" id="svg1770" width="55.629" height="44.56" version="1.1" xml:space="default"><defs id="defs3" xml:space="default"><linearGradient id="linearGradient2103-2" xml:space="default"><stop style="stop-color:#e1e1e1;stop-opacity:1" id="stop2105-8" offset="0"/><stop style="stop-color:#a2a2a3;stop-opacity:1" id="stop2107-1" offset="1"/></linearGradient><linearGradient id="linearGradient2064-0" xml:space="default"><stop style="stop-color:#b2b2b2;stop-opacity:1" id="stop2066-7" offset="0"/><stop style="stop-color:#dcdcde;stop-opacity:1" id="stop2068-8" offset="1"/></linearGradient><linearGradient id="linearGradient2052-5" xml:space="default"><stop style="stop-color:#aaa;stop-opacity:1" id="stop2054-6" offset="0"/><stop style="stop-color:#c8c8ca;stop-opacity:1" id="stop2056-3" offset="1"/></linearGradient><linearGradient id="linearGradient9457" x1="1390.407" x2="1180.534" y1="284.347" y2="65.462" gradientTransform="matrix(0.02919086,0,0,0.119682,11.90859,7.7235324)" gradientUnits="userSpaceOnUse" xlink:href="#linearGradient2064-0" xml:space="default"/><linearGradient id="linearGradient9461" x1="205.673" x2="69.097" y1="1468.668" y2="1222.128" gradientTransform="matrix(0.146,0,0,0.02392903,0.716466,7.7235324)" gradientUnits="userSpaceOnUse" xlink:href="#linearGradient2052-5" xml:space="default"/><linearGradient id="linearGradient9464" x1="34.792" x2="13.166" y1="42.567" y2="15.033" gradientTransform="matrix(1.40967,0,0,1.098332,-8.853555,-5.9495896)" gradientUnits="userSpaceOnUse" xlink:href="#linearGradient2103-2" xml:space="default"/><linearGradient id="linearGradient2961" x1="45.448" x2="45.448" y1="92.54" y2="7.017" gradientTransform="scale(1.0058652,0.994169)" gradientUnits="userSpaceOnUse" xlink:href="#ButtonShadow-2" xml:space="default"/><filter id="filter3689" xml:space="default" style="color-interpolation-filters:sRGB"><feGaussianBlur id="feGaussianBlur3691" stdDeviation="1.71" xml:space="default"/></filter><linearGradient id="ButtonShadow-2" x1="45.448" x2="45.448" y1="92.54" y2="7.017" gradientTransform="scale(1.0058652,0.994169)" gradientUnits="userSpaceOnUse" xml:space="default"><stop id="stop3750-61" offset="0" style="stop-color:#000;stop-opacity:1"/><stop id="stop3752-0" offset="1" style="stop-color:#000;stop-opacity:.58823532"/></linearGradient><radialGradient id="radialGradient644" cx="159.491" cy="168.12" r="30.638" fx="159.491" fy="168.12" gradientTransform="scale(0.6636838,1.5067416)" gradientUnits="userSpaceOnUse" spreadMethod="reflect" xlink:href="#linearGradient646" xml:space="default"/><linearGradient id="linearGradient646" xml:space="default"><stop id="stop647" offset="0" style="stop-color:#b3b3eb;stop-opacity:0"/><stop id="stop648" offset="1" style="stop-color:#000;stop-opacity:1"/></linearGradient><linearGradient id="linearGradient643" x1="193.629" x2="193.628" y1="161.647" y2="162.417" gradientTransform="scale(0.6636838,1.5067416)" gradientUnits="userSpaceOnUse" spreadMethod="reflect" xlink:href="#linearGradient640" xml:space="default"/><linearGradient id="linearGradient640" xml:space="default"><stop id="stop641" offset="0" style="stop-color:#333;stop-opacity:1"/><stop id="stop642" offset="1" style="stop-color:#fff;stop-opacity:1"/></linearGradient><radialGradient id="radialGradient656" cx="193.401" cy="181.62" r="68.141" fx="193.401" fy="181.62" gradientTransform="scale(0.67783439,1.4752866)" gradientUnits="userSpaceOnUse" spreadMethod="reflect" xlink:href="#linearGradient650" xml:space="default"/><linearGradient id="linearGradient650" xml:space="default"><stop id="stop651" offset="0" style="stop-color:#fff;stop-opacity:1"/><stop id="stop652" offset="1" style="stop-color:#666;stop-opacity:1"/></linearGradient><radialGradient id="radialGradient922" cx="85.528" cy="170.144" r="252.084" fx="85.528" fy="170.144" gradientTransform="matrix(0.15552064,0,0,0.18143897,-4.5597628,-20.653753)" gradientUnits="userSpaceOnUse" spreadMethod="reflect" xlink:href="#linearGradient650" xml:space="default"/></defs><metadata id="metadata4" xml:space="default"/><g id="layer1" transform="translate(-14.626454,0.92332773)" xml:space="default"><g id="layer1-8" transform="matrix(0.73423972,0,0,1.0375401,12.998393,-5.6259096)" xml:space="default"><g style="display:none" id="layer2-0" transform="translate(-14.252266,59.038523)" xml:space="default"><path style="opacity:.9;fill:url(#linearGradient2961);fill-opacity:1;fill-rule:nonzero;stroke:none;display:inline;filter:url(#filter3689)" id="rect3745" d="m 11,7.0000001 c -3.324,0 -6,2.676 -6,5.9999999 l 0,5 0,16 c 0,15.179622 5,20.148843 5,40 l 0,12 c 0,3.313708 2.686292,6 6,6 l 64,0 c 3.313708,0 6,-2.686292 6,-6 l 0,-12 c 0,-19.851157 5,-24.820378 5,-40 l 0,-16 0,-5 C 91,9.6760001 88.324,7.0000001 85,7.0000001 l -74,0 z" xml:space="default"/></g><path id="path617" d="m 20.505084,47.251268 c -15.6105918,0 -17.9707368,-8.607578 -17.8092718,-11.334646 l 0,0 0,0 0,0 0,0 0,0 C 2.9361352,33.344436 3.1360452,22.997507 2.4464862,14.28496 2.6221862,4.7631449 14.334068,4.9907449 20.502472,4.9907449 c 6.168368,0 17.880248,-0.2276 18.055948,9.2942151 -0.68954,8.712547 -0.48964,19.059476 -0.24933,21.631107 l 0,0 0,0 0,0 0,0 0,0 c 0.1615,2.727066 -2.19866,11.334645 -17.809251,11.334645" xml:space="default" style="font-size:12px;fill:url(#radialGradient922);fill-rule:evenodd;stroke:#000;stroke-width:.45828813;stroke-linejoin:round;stroke-miterlimit:4;stroke-opacity:.19771866;stroke-dasharray:none"/><path id="path655" d="m 133.75,254.93353 c 0,19.15738 -7.13546,34.6875 -15.9375,34.6875 -8.80204,0 -15.9375,-15.53012 -15.9375,-34.6875 0,-19.15737 7.13546,-34.6875 15.9375,-34.6875 8.80204,0 15.9375,15.53013 15.9375,34.6875 z" transform="matrix(0.20896473,0,0,0.1645892,-4.1340018,-28.904556)" xml:space="default" style="fill:url(#radialGradient656);fill-opacity:1;fill-rule:evenodd;stroke:none"/><path id="path618" d="m 20.50031,5.2139136 0,15.5280114" xml:space="default" style="font-size:12px;fill:none;stroke:#484848;stroke-width:.45828813;stroke-miterlimit:4;stroke-opacity:1;stroke-dasharray:none"/><path id="path639" d="m 129.375,257.12103 c 0,14.49748 -5.17671,26.25 -11.5625,26.25 -6.38579,0 -11.5625,-11.75252 -11.5625,-26.25 0,-14.49747 5.17671,-26.25 11.5625,-26.25 6.38579,0 11.5625,11.75253 11.5625,26.25 z" transform="matrix(0.21314407,0,0,0.13238698,-4.5597668,-21.067467)" xml:space="default" style="fill:url(#linearGradient643);fill-opacity:1;fill-rule:evenodd;stroke:none"/><path id="path645" d="m 129.375,257.12103 c 0,14.49748 -5.17671,26.25 -11.5625,26.25 -6.38579,0 -11.5625,-11.75252 -11.5625,-26.25 0,-14.49747 5.17671,-26.25 11.5625,-26.25 6.38579,0 11.5625,11.75253 11.5625,26.25 z" transform="matrix(0.21314407,0,0,0.13238698,-4.5597668,-21.067467)" xml:space="default" style="fill:url(#radialGradient644);fill-opacity:1;fill-rule:evenodd;stroke:none"/><path id="path619" d="m 20.452739,20.737185 c -17.0866821,0 -16.6333812,0.43648 -17.144022,0.519221" xml:space="default" style="fill:none;stroke:#484848;stroke-width:.45828813;stroke-linecap:round;stroke-linejoin:miter;stroke-miterlimit:4;stroke-opacity:1;stroke-dasharray:none"/><path id="path620" d="m 20.501498,20.736747 c 17.375883,0 17.315837,0.617889 17.315837,0.617889" xml:space="default" style="font-size:12px;fill:none;stroke:#484848;stroke-width:.45828813;stroke-linecap:round;stroke-miterlimit:4;stroke-opacity:1;stroke-dasharray:none"/></g></g><g id="layer2" transform="translate(-14.626454,0.92332773)" xml:space="default" style="display:inline"><g id="layer1-1" transform="matrix(0.60694868,0,0,0.98696746,41.000001,-2.6840558)" xml:space="default"><g id="g4551" transform="matrix(0.88431668,0,0,0.90183034,0.38599243,2.3560719)" xml:space="default"><rect style="fill:url(#linearGradient9464);fill-opacity:1;stroke:#000;stroke-width:1.44679248;stroke-linecap:round;stroke-linejoin:miter;stroke-miterlimit:4;stroke-opacity:.20152091;stroke-dashoffset:0" id="rect1788" width="50.442" height="38.876" x="2.905" y="4.562" rx="1.672" ry="1.672" xml:space="default"/><path style="fill:url(#linearGradient9461);fill-opacity:1;fill-rule:evenodd;stroke:none" id="path1790" d="m 4.135801,42.697165 4.8682778,-4.986181 37.6085142,-0.08509 5.512941,4.906357 -47.989733,0.164912 z" xml:space="default"/><path style="opacity:.4969325;fill:#fff;fill-opacity:1;fill-rule:evenodd;stroke:none" id="path1795" d="M 3.8007132,42.697165 7.7147797,37.336595 7.8117597,7.8159806 3.7388802,5.6038367 3.8007132,42.697165 Z" xml:space="default"/><path style="fill:url(#linearGradient9457);fill-opacity:1;fill-rule:evenodd;stroke:none" id="path1800" d="M 52.240511,42.782253 47.769249,36.176949 47.533888,8.239817 52.245777,6.1601994 52.240477,42.782253 Z" xml:space="default"/><path style="opacity:.4969325;fill:#fff;fill-opacity:1;fill-rule:evenodd;stroke:none" id="path1805" d="M 3.8299916,5.7323794 7.1045217,7.8861206 46.824754,7.7379032 51.577811,6.099264 3.8299916,5.7323794 Z" xml:space="default"/><text id="text14572" x="28.213" y="33.21" transform="scale(0.97544987,1.025168)" xml:space="preserve" style="font-size:32.70735168px;font-style:normal;font-variant:normal;font-weight:700;font-stretch:normal;text-align:center;line-height:125%;writing-mode:lr-tb;text-anchor:middle;fill:#000;fill-opacity:.5209125;stroke:#000;stroke-width:1.11978245;stroke-opacity:.31939165;font-family:Linux Biolinum O;-inkscape-font-specification:'Linux Biolinum O, Bold'"><tspan id="tspan14574" x="28.213" y="33.21" xml:space="preserve" style="font-size:33.80604935px;font-style:normal;font-variant:normal;font-weight:700;font-stretch:normal;text-align:center;line-height:125%;writing-mode:lr-tb;text-anchor:middle;fill:#000;fill-opacity:.5209125;stroke:#000;stroke-width:1.11978245;stroke-opacity:.31939165;font-family:Linux Biolinum O;-inkscape-font-specification:Linux Biolinum O Bold">A</tspan></text></g></g></g></svg>